<?xml version="1.0" encoding="UTF-8"?>
<svg width="132px" height="119px" viewBox="0 0 132 119" version="1.1" xmlns="http://www.w3.org/2000/svg" xmlns:xlink="http://www.w3.org/1999/xlink">
    <!-- Generator: sketchtool 50.1 (55044) - http://www.bohemiancoding.com/sketch -->
    <title>D135C0D9-82E7-464B-9E00-024B603E78EC</title>
    <desc>Created with sketchtool.</desc>
    <defs></defs>
    <g id="Tools" stroke="none" stroke-width="1" fill="none" fill-rule="evenodd">
        <g id="Tools---Container-Types" transform="translate(-591.000000, -490.000000)">
            <g id="containers1" transform="translate(591.000000, 490.000000)">
                <polygon id="Fill-1" fill="#FEFEFE" points="96.5349 0.0002 -0.0001 31.6842 -0.0001 100.2132 50.5529 118.4062 131.9869 56.9732 131.8819 3.9562"></polygon>
                <path d="M0,31.6838 L0,31.8928 L0,100.0158 L0,100.2138 L0.188,100.2808 L50.4,118.3508 L50.553,118.4058 L50.779,118.2258 L50.319,40.2108 L50.318,39.9718 L50.083,39.9318 L0.261,31.6028 L0,31.6838 Z M0.567,99.8168 L0.567,32.2278 L49.756,40.4518 L50.211,117.6828 L0.567,99.8168 Z" id="Fill-2" fill="#231F20"></path>
                <path d="M0.1953,31.6235 L0.3713,32.1615 L96.5923,0.5515 L96.4173,0.0115 L0.1953,31.6235 Z M49.9233,39.9525 L50.1503,40.4705 L131.7143,4.4665 L131.4853,3.9495 L49.9233,39.9525 Z" id="Fill-3" fill="#231F20"></path>
                <polygon id="Fill-4" fill="#231F20" points="50.3253 117.8588 50.6663 118.3108 131.9863 56.9728 131.5333 56.6048"></polygon>
                <polygon id="Fill-5" fill="#231F20" points="2.4849 32.3084 2.4549 100.8984 3.0209 100.8984 3.0489 32.3084"></polygon>
                <polygon id="Fill-6" fill="#231F20" points="50.0247 44.2928 0.3327 35.3528 0.2327 35.9088 50.0127 44.8638 50.1007 44.8798 50.1817 44.8428 131.7237 7.2478 131.4877 6.7338"></polygon>
                <polygon id="Fill-7" fill="#231F20" points="46.4355 39.6569 46.4325 116.7249 46.9975 116.7249 46.9995 39.6569"></polygon>
                <polygon id="Fill-8" fill="#231F20" points="50.4207 113.0321 0.3757 95.8101 0.1917 96.3451 50.3767 113.6151 50.5147 113.6641 50.6347 113.5761 131.8657 53.9841 131.5317 53.5281"></polygon>
                <polygon id="Fill-9" fill="#231F20" points="46.6044 39.3974 128.8774 3.6564 129.1034 4.1754 46.8304 39.9164"></polygon>
                <polygon id="Fill-10" fill="#231F20" points="2.6784 32.0402 2.8554 32.5752 98.5714 0.7702 98.3944 0.2352"></polygon>
                <polygon id="Fill-11" fill="#231F20" points="4.6918 30.1801 54.1668 38.1291 54.4048 38.1681 54.4048 38.4081 54.3388 115.3991 53.7748 115.3991 53.8398 38.6491 4.6028 30.7381"></polygon>
                <polygon id="Fill-12" fill="#231F20" points="96.5349 0.0002 96.4739 0.5622 131.3179 4.4612 131.4219 56.8312 131.9869 56.9732 131.9869 56.8312 131.8829 4.2082 131.8819 3.9562 131.6309 3.9272"></polygon>
                <polygon id="Fill-13" fill="#231F20" points="94.7118 0.6 129.9228 4.681 130.1738 4.71 130.1738 4.962 130.1728 58.199 129.6088 58.199 129.6088 5.215 94.6478 1.162"></polygon>
                <path d="M129.6078,54.9379 L129.6078,8.2229 L54.4008,42.8969 L54.3438,110.1529 L129.6078,54.9379 Z M130.1748,7.8229 L130.1748,55.0819 L130.1748,55.2239 L130.0588,55.3089 L54.2288,110.9399 L53.7778,111.2699 L53.7778,110.7109 L53.8368,42.7149 L53.8368,42.5349 L54.0008,42.4589 L129.6818,7.5659 L129.7998,7.8229 L130.1748,7.8229 Z" id="Fill-14" fill="#231F20"></path>
                <polygon id="Fill-15" fill="#231F20" points="90.3825 25.8662 90.3595 83.8752 90.9245 83.8752 90.9475 25.8662"></polygon>
                <polygon id="Fill-16" fill="#231F20" points="72.4392 34.1399 72.4782 96.9929 73.0432 96.9929 73.0032 34.1399"></polygon>
                <polygon id="Fill-17" fill="#231F20" points="108.2502 17.6285 108.3552 70.6735 108.9212 70.6735 108.8142 17.6285"></polygon>
                <polygon id="Fill-18" fill="#231F20" points="63.4356 38.2907 63.4756 103.5987 64.0396 103.5987 63.9996 38.2907"></polygon>
                <polygon id="Fill-19" fill="#231F20" points="67.9365 36.2153 67.9765 100.2953 68.5425 100.2953 68.5005 36.2153"></polygon>
                <polygon id="Fill-20" fill="#231F20" points="58.9707 40.349 58.9817 106.895 59.5457 106.895 59.5347 40.349"></polygon>
                <polygon id="Fill-21" fill="#231F20" points="76.9365 32.0654 76.9575 93.7074 77.5215 93.7074 77.5005 32.0654"></polygon>
                <polygon id="Fill-22" fill="#231F20" points="81.4122 30.0026 81.4352 90.4226 81.9992 90.4226 81.9762 30.0026"></polygon>
                <polygon id="Fill-23" fill="#231F20" points="85.8888 27.938 85.9058 87.142 86.4698 87.142 86.4528 27.938"></polygon>
                <polygon id="Fill-24" fill="#231F20" points="94.8663 23.7989 94.8383 80.5889 95.4033 80.5889 95.4303 23.7989"></polygon>
                <polygon id="Fill-25" fill="#231F20" points="99.3249 21.7433 99.3199 77.3013 99.8849 77.3013 99.8889 21.7433"></polygon>
                <polygon id="Fill-26" fill="#231F20" points="103.779 19.6895 103.775 74.0335 104.34 74.0335 104.343 19.6895"></polygon>
                <polygon id="Fill-27" fill="#231F20" points="112.8168 15.5225 112.8408 67.3825 113.4058 67.3825 113.3808 15.5225"></polygon>
                <polygon id="Fill-28" fill="#231F20" points="117.3006 13.4561 117.3416 64.0811 117.9056 64.0811 117.8646 13.4561"></polygon>
                <polygon id="Fill-29" fill="#231F20" points="121.8006 11.3816 121.8356 60.7826 122.4006 60.7826 122.3646 11.3816"></polygon>
                <polygon id="Fill-30" fill="#231F20" points="126.2925 9.3098 126.3175 57.4958 126.8825 57.4958 126.8575 9.3098"></polygon>
                <polygon id="Fill-31" fill="#231F20" points="88.5213 26.7248 88.5073 85.2348 89.0713 85.2348 89.0863 26.7248"></polygon>
                <polygon id="Fill-32" fill="#231F20" points="70.5852 34.994 70.6102 98.364 71.1742 98.364 71.1492 34.994"></polygon>
                <polygon id="Fill-33" fill="#231F20" points="106.4178 18.4736 106.4858 72.0446 107.0518 72.0446 106.9818 18.4736"></polygon>
                <polygon id="Fill-34" fill="#231F20" points="61.5807 39.1457 61.6067 104.9677 62.1707 104.9677 62.1447 39.1457"></polygon>
                <polygon id="Fill-35" fill="#231F20" points="66.0825 37.0694 66.1085 101.6654 66.6735 101.6654 66.6465 37.0694"></polygon>
                <polygon id="Fill-36" fill="#231F20" points="57.1131 41.2049 57.1201 108.2599 57.6851 108.2599 57.6781 41.2049"></polygon>
                <polygon id="Fill-37" fill="#231F20" points="75.0816 32.9204 75.0946 95.0734 75.6596 95.0734 75.6456 32.9204"></polygon>
                <polygon id="Fill-38" fill="#231F20" points="79.5573 30.8567 79.5713 91.7897 80.1373 91.7897 80.1213 30.8567"></polygon>
                <polygon id="Fill-39" fill="#231F20" points="84.0339 28.793 84.0449 88.507 84.6089 88.507 84.5979 28.793"></polygon>
                <polygon id="Fill-40" fill="#231F20" points="93.0033 24.6584 92.9853 81.9484 93.5493 81.9484 93.5683 24.6584"></polygon>
                <polygon id="Fill-41" fill="#231F20" points="97.4664 22.6001 97.4634 78.6641 98.0284 78.6641 98.0304 22.6001"></polygon>
                <polygon id="Fill-42" fill="#231F20" points="101.9205 20.5472 101.9175 75.3962 102.4825 75.3962 102.4845 20.5472"></polygon>
                <polygon id="Fill-43" fill="#231F20" points="110.9655 16.3766 110.9795 68.7466 111.5455 68.7466 111.5295 16.3766"></polygon>
                <polygon id="Fill-44" fill="#231F20" points="115.4538 14.3075 115.4798 65.4455 116.0448 65.4455 116.0178 14.3075"></polygon>
                <polygon id="Fill-45" fill="#231F20" points="119.9538 12.233 119.9768 62.147 120.5418 62.147 120.5178 12.233"></polygon>
                <polygon id="Fill-46" fill="#231F20" points="124.443 10.163 124.459 58.858 125.023 58.858 125.007 10.163"></polygon>
                <polygon id="Fill-47" fill="#231F20" points="92.2374 25.0112 92.2234 82.5082 92.7884 82.5082 92.8024 25.0112"></polygon>
                <polygon id="Fill-48" fill="#231F20" points="74.3031 33.2795 74.3281 95.6355 74.8931 95.6355 74.8671 33.2795"></polygon>
                <polygon id="Fill-49" fill="#231F20" points="110.1375 16.7582 110.2045 69.3162 110.7695 69.3162 110.7015 16.7582"></polygon>
                <polygon id="Fill-50" fill="#231F20" points="65.2986 37.4312 65.3236 102.2422 65.8886 102.2422 65.8626 37.4312"></polygon>
                <polygon id="Fill-51" fill="#231F20" points="69.8004 35.3558 69.8264 98.9388 70.3914 98.9388 70.3644 35.3558"></polygon>
                <polygon id="Fill-52" fill="#231F20" points="60.8301 39.4913 60.8371 105.5333 61.4021 105.5333 61.3951 39.4913"></polygon>
                <polygon id="Fill-53" fill="#231F20" points="78.7986 31.2068 78.8126 92.3478 79.3766 92.3478 79.3626 31.2068"></polygon>
                <polygon id="Fill-54" fill="#231F20" points="83.2752 29.1431 83.2882 89.0611 83.8542 89.0611 83.8392 29.1431"></polygon>
                <polygon id="Fill-55" fill="#231F20" points="87.7509 27.0794 87.7619 85.7814 88.3269 85.7814 88.3159 27.0794"></polygon>
                <polygon id="Fill-56" fill="#231F20" points="96.7194 22.9448 96.7014 79.2228 97.2664 79.2228 97.2834 22.9448"></polygon>
                <polygon id="Fill-57" fill="#231F20" points="101.1834 20.8865 101.1794 75.9365 101.7444 75.9365 101.7474 20.8865"></polygon>
                <polygon id="Fill-58" fill="#231F20" points="105.6375 18.8336 105.6345 72.6686 106.1995 72.6686 106.2015 18.8336"></polygon>
                <polygon id="Fill-59" fill="#231F20" points="114.6825 14.6621 114.6975 66.0201 115.2625 66.0201 115.2475 14.6621"></polygon>
                <polygon id="Fill-60" fill="#231F20" points="119.1717 12.593 119.1977 62.719 119.7627 62.719 119.7367 12.593"></polygon>
                <polygon id="Fill-61" fill="#231F20" points="123.6717 10.5185 123.6937 59.4195 124.2597 59.4195 124.2357 10.5185"></polygon>
                <polygon id="Fill-62" fill="#231F20" points="128.1609 8.4494 128.1749 56.1324 128.7409 56.1324 128.7249 8.4494"></polygon>
                <polygon id="Fill-63" fill="#231F20" points="56.1978 41.627 56.2278 108.916 56.7918 108.916 56.7628 41.627"></polygon>
                <path d="M2.4574,96.9223 L2.4834,36.0773 L2.4834,35.7393 L2.8154,35.7993 L46.7674,43.7063 L46.9994,43.7483 L46.9994,43.9843 L46.9984,112.0563 L46.9974,112.4523 L46.6244,112.3233 L2.6474,97.1903 L2.4574,97.1243 L2.4574,96.9223 Z M3.0474,36.4143 L3.0214,96.7203 L46.4334,111.6593 L46.4354,44.2203 L3.0474,36.4143 Z" id="Fill-64" fill="#231F20"></path>
                <path d="M12.708,37.9163 L12.701,57.9733 L13.265,57.9733 L13.272,37.9163 L12.708,37.9163 Z M12.7,59.0603 L12.691,83.6473 L13.256,83.6473 L13.265,59.0603 L12.7,59.0603 Z" id="Fill-65" fill="#231F20"></path>
                <path d="M13.825,58.245 L14.392,58.245 L14.392,38.117 L13.825,38.117 L13.825,58.245 Z M13.826,100.834 L14.39,100.834 L14.39,59.412 L13.826,59.412 L13.826,100.834 Z" id="Fill-66" fill="#231F20"></path>
                <path d="M17.6634,38.8082 L17.6574,59.1602 L18.2214,59.1602 L18.2274,38.8082 L17.6634,38.8082 Z M17.6564,60.3312 L17.6434,102.1482 L18.2084,102.1482 L18.2214,60.3312 L17.6564,60.3312 Z" id="Fill-67" fill="#231F20"></path>
                <path d="M18.781,59.432 L19.348,59.432 L19.348,39.009 L18.781,39.009 L18.781,59.432 Z M18.783,60.6 L18.782,102.541 L19.346,102.541 L19.347,60.6 L18.783,60.6 Z" id="Fill-68" fill="#231F20"></path>
                <polygon id="Fill-69" fill="#231F20" points="22.4406 39.6677 22.4316 103.7967 22.9966 103.7967 23.0046 39.6677"></polygon>
                <path d="M26.4672,40.3922 L26.4592,61.2682 L27.0232,61.2682 L27.0312,40.3922 L26.4672,40.3922 Z M26.4592,62.4382 L26.4432,105.1772 L27.0082,105.1772 L27.0232,62.4382 L26.4592,62.4382 Z" id="Fill-70" fill="#231F20"></path>
                <path d="M27.583,61.541 L28.15,61.541 L28.15,40.593 L27.583,40.593 L27.583,61.541 Z M27.585,62.709 L27.584,105.569 L28.148,105.569 L28.149,62.709 L27.585,62.709 Z" id="Fill-71" fill="#231F20"></path>
                <path d="M31.4226,41.2832 L31.4166,62.4562 L31.9806,62.4562 L31.9866,41.2832 L31.4226,41.2832 Z M31.4166,63.5402 L31.4086,89.3192 L31.9726,89.3192 L31.9806,63.5402 L31.4166,63.5402 Z" id="Fill-72" fill="#231F20"></path>
                <path d="M32.54,62.729 L33.107,62.729 L33.107,41.484 L32.54,41.484 L32.54,62.729 Z M32.541,107.276 L33.105,107.276 L33.105,63.897 L32.541,63.897 L32.541,107.276 Z" id="Fill-73" fill="#231F20"></path>
                <path d="M5.4711,96.6752 L2.6481,95.7042 L2.4571,95.6392 L2.4581,95.4362 L2.4591,93.6792 L2.4591,93.2992 L2.8221,93.4072 L5.6441,94.2502 L5.8461,94.3102 L5.8461,94.5212 L5.8451,96.4072 L5.8451,96.8042 L5.4711,96.6752 Z M3.0221,95.2342 L5.2811,96.0112 L5.2811,94.7322 L3.0231,94.0582 L3.0221,95.2342 Z" id="Fill-74" fill="#231F20"></path>
                <path d="M5.4789,78.6059 L2.6559,77.6339 L2.4649,77.5689 L2.4659,77.3669 L2.4659,75.6099 L2.4659,75.2299 L2.8299,75.3379 L5.6519,76.1799 L5.8539,76.2409 L5.8539,76.4519 L5.8529,78.3369 L5.8529,78.7349 L5.4789,78.6059 Z M3.0299,77.1639 L5.2889,77.9409 L5.2889,76.6629 L3.0309,75.9889 L3.0299,77.1639 Z" id="Fill-75" fill="#231F20"></path>
                <path d="M5.5013,59.1313 L2.6783,58.3373 L2.4723,58.2783 L2.4723,58.0653 L2.4733,56.3073 L2.4733,55.9493 L2.8203,56.0313 L5.6423,56.6963 L5.8603,56.7483 L5.8603,56.9723 L5.8593,58.8593 L5.8593,59.2333 L5.5013,59.1313 Z M3.0373,57.8503 L5.2953,58.4853 L5.2953,57.1963 L3.0383,56.6643 L3.0373,57.8503 Z" id="Fill-76" fill="#231F20"></path>
                <path d="M5.5092,41.061 L2.6862,40.267 L2.4802,40.209 L2.4802,39.994 L2.4812,38.237 L2.4812,37.88 L2.8282,37.961 L5.6502,38.626 L5.8682,38.678 L5.8682,38.902 L5.8682,40.789 L5.8672,41.162 L5.5092,41.061 Z M3.0452,39.78 L5.3032,40.415 L5.3032,39.126 L3.0462,38.595 L3.0452,39.78 Z" id="Fill-77" fill="#231F20"></path>
                <path d="M46.6239,110.8979 L43.8009,109.9259 L43.6099,109.8609 L43.6099,109.6589 L43.6109,107.9009 L43.6109,107.5219 L43.9749,107.6299 L46.7969,108.4719 L46.9989,108.5329 L46.9989,108.7439 L46.9979,110.6289 L46.9979,111.0259 L46.6239,110.8979 Z M44.1749,109.4569 L46.4329,110.2329 L46.4339,108.9549 L44.1759,108.2809 L44.1749,109.4569 Z" id="Fill-78" fill="#231F20"></path>
                <path d="M46.6351,90.6401 L43.8121,89.7101 L43.6181,89.6471 L43.6181,89.4421 L43.6191,87.6851 L43.6191,87.3111 L43.9781,87.4121 L46.8001,88.2121 L47.0061,88.2711 L47.0061,88.4851 L47.0061,90.3711 L47.0061,90.7621 L46.6351,90.6401 Z M44.1821,89.2371 L46.4411,89.9801 L46.4411,88.6991 L44.1831,88.0591 L44.1821,89.2371 Z" id="Fill-79" fill="#231F20"></path>
                <path d="M46.663,67.9486 L43.84,67.2456 L43.625,67.1916 L43.625,66.9706 L43.626,65.2136 L43.626,64.8676 L43.965,64.9366 L46.788,65.5106 L47.013,65.5566 L47.013,65.7876 L47.013,67.6736 L47.013,68.0356 L46.663,67.9486 Z M44.19,66.7496 L46.448,67.3116 L46.448,66.0186 L44.19,65.5586 L44.19,66.7496 Z" id="Fill-80" fill="#231F20"></path>
                <path d="M46.6727,49.2348 L43.8497,48.5638 L43.6327,48.5118 L43.6327,48.2878 L43.6337,46.5308 L43.6337,46.1888 L43.9697,46.2528 L46.7917,46.7948 L47.0217,46.8388 L47.0217,47.0728 L47.0207,48.9588 L47.0207,49.3178 L46.6727,49.2348 Z M44.1977,48.0638 L46.4557,48.6008 L46.4567,47.3068 L44.1977,46.8728 L44.1977,48.0638 Z" id="Fill-81" fill="#231F20"></path>
                <path d="M34.1063,88.8139 L36.6633,89.5809 L36.8643,89.6409 L36.8643,89.8519 L36.8663,90.8029 L36.8673,91.1839 L36.5023,91.0729 L33.9433,90.2969 L34.1073,89.7569 L36.3013,90.4219 L36.3003,90.0629 L33.9443,89.3569 L34.1063,88.8139 Z M33.3843,90.1279 L32.7413,89.9339 L32.9053,89.3909 L33.5483,89.5859 L33.3843,90.1279 Z M32.9043,88.4549 L33.5473,88.6469 L33.3853,89.1889 L32.7423,88.9969 L32.9043,88.4549 Z M28.3773,88.6099 L27.7853,88.4299 L27.9483,87.8899 L28.5413,88.0699 L28.3773,88.6099 Z M31.6063,89.5889 L28.9363,88.7799 L29.1003,88.2389 L31.7703,89.0479 L31.6063,89.5889 Z M29.0983,87.3139 L31.7693,88.1149 L31.6073,88.6569 L28.9373,87.8569 L29.0983,87.3139 Z M27.9473,86.9689 L28.5403,87.1469 L28.3783,87.6889 L27.7863,87.5119 L27.9473,86.9689 Z M17.8483,85.4209 L17.3183,85.2599 L17.4823,84.7179 L18.0113,84.8779 L17.8483,85.4209 Z M17.4813,83.8349 L18.0113,83.9939 L17.8493,84.5369 L17.3193,84.3769 L17.4813,83.8349 Z M11.5643,83.5159 L8.6703,82.6389 L8.4683,82.5779 L8.4703,82.3679 L8.4763,81.5179 L8.4793,81.1399 L8.8393,81.2479 L11.7273,82.1129 L11.5653,82.6549 L9.0383,81.8979 L9.0363,82.1599 L11.7283,82.9759 L11.5643,83.5159 Z M12.8893,83.9179 L12.1233,83.6859 L12.2873,83.1439 L13.0533,83.3759 L12.8893,83.9179 Z M16.7593,85.0899 L14.0253,84.2609 L14.1893,83.7209 L16.9233,84.5499 L16.7593,85.0899 Z M14.1893,82.8489 L16.9223,83.6679 L16.7603,84.2099 L14.0273,83.3919 L14.1893,82.8489 Z M12.2863,82.2799 L13.0523,82.5089 L12.8913,83.0509 L12.1253,82.8219 L12.2863,82.2799 Z" id="Fill-82" fill="#231F20"></path>
                <polygon id="Fill-83" fill="#231F20" points="11.3632 84.5639 11.3632 81.2509 11.3632 80.9019 11.7052 80.9739 12.2642 81.0939 12.4882 81.1419 12.4882 81.3719 12.4882 84.7239 12.4882 85.0989 12.1282 84.9969 11.5692 84.8359 11.3632 84.7779"></polygon>
                <polygon id="Fill-84" fill="#231F20" points="16.558 86.1615 16.558 82.8485 16.558 82.4985 16.9 82.5715 17.459 82.6905 17.684 82.7395 17.684 82.9685 17.684 86.3205 17.684 86.6965 17.323 86.5935 16.764 86.4335 16.558 86.3755"></polygon>
                <polygon id="Fill-85" fill="#231F20" points="28.1757 89.4643 28.1757 86.1513 28.1757 85.8013 28.5177 85.8743 29.0767 85.9943 29.3017 86.0433 29.3017 86.2723 29.3017 89.6243 29.3017 89.9993 28.9407 89.8973 28.3817 89.7363 28.1757 89.6783"></polygon>
                <polygon id="Fill-86" fill="#231F20" points="33.183 91.0209 33.183 87.7079 33.183 87.3589 33.525 87.4309 34.084 87.5509 34.309 87.5989 34.309 87.8289 34.309 91.1809 34.309 91.5559 33.948 91.4539 33.389 91.2929 33.183 91.2349"></polygon>
                <path d="M12.1625,101.9545 L12.1545,100.2615 L12.1525,99.8625 L12.5295,99.9915 L14.6185,100.7105 L14.8095,100.7765 L14.8085,100.9785 L14.8025,102.7915 L14.8015,103.2105 L14.4155,103.0545 L12.3395,102.2165 L12.1635,102.1445 L12.1625,101.9545 Z M12.7215,100.6565 L12.7265,101.7625 L14.2395,102.3735 L14.2435,101.1805 L12.7215,100.6565 Z" id="Fill-87" fill="#231F20"></path>
                <path d="M17.1576,103.6733 L17.1496,101.9803 L17.1476,101.5813 L17.5246,101.7103 L19.6136,102.4303 L19.8036,102.4953 L19.8036,102.6973 L19.7976,104.5113 L19.7966,104.9293 L19.4096,104.7733 L17.3346,103.9353 L17.1576,103.8633 L17.1576,103.6733 Z M17.7166,102.3753 L17.7206,103.4813 L19.2346,104.0923 L19.2386,102.9003 L17.7166,102.3753 Z" id="Fill-88" fill="#231F20"></path>
                <path d="M25.9061,106.685 L25.8991,104.991 L25.8971,104.592 L26.2731,104.721 L28.3621,105.441 L28.5531,105.506 L28.5521,105.708 L28.5461,107.522 L28.5451,107.94 L28.1591,107.784 L26.0831,106.946 L25.9071,106.874 L25.9061,106.685 Z M26.4651,105.387 L26.4701,106.493 L27.9831,107.103 L27.9871,105.911 L26.4651,105.387 Z" id="Fill-89" fill="#231F20"></path>
                <path d="M30.9423,108.4174 L30.9353,106.7234 L30.9323,106.3254 L31.3093,106.4544 L33.3983,107.1734 L33.5883,107.2394 L33.5883,107.4404 L33.5823,109.2544 L33.5813,109.6734 L33.1953,109.5174 L31.1193,108.6794 L30.9433,108.6074 L30.9423,108.4174 Z M31.5013,107.1194 L31.5063,108.2254 L33.0193,108.8364 L33.0233,107.6434 L31.5013,107.1194 Z" id="Fill-90" fill="#231F20"></path>
                <path d="M12.9437,37.0243 L12.9427,37.6213 L14.1387,37.8363 L14.1387,37.2423 L12.9437,37.0243 Z M12.3777,37.8573 L12.3797,36.6863 L12.3797,36.3483 L12.7117,36.4083 L14.4707,36.7293 L14.7037,36.7723 L14.7037,37.0073 L14.7027,38.1733 L14.7027,38.5113 L14.3707,38.4513 L12.6107,38.1353 L12.3777,38.0933 L12.3777,37.8573 Z" id="Fill-91" fill="#231F20"></path>
                <path d="M17.8978,37.9154 L17.8968,38.5124 L19.0918,38.7274 L19.0928,38.1334 L17.8978,37.9154 Z M17.3318,38.7484 L17.3338,37.5774 L17.3338,37.2394 L17.6658,37.2994 L19.4248,37.6204 L19.6568,37.6634 L19.6568,37.8984 L19.6568,39.0644 L19.6568,39.4024 L19.3248,39.3424 L17.5648,39.0264 L17.3318,38.9844 L17.3318,38.7484 Z" id="Fill-92" fill="#231F20"></path>
                <path d="M26.6747,39.4945 L26.6737,40.0915 L27.8697,40.3065 L27.8697,39.7125 L26.6747,39.4945 Z M26.1087,40.3275 L26.1107,39.1565 L26.1107,38.8185 L26.4427,38.8785 L28.2017,39.1995 L28.4347,39.2425 L28.4347,39.4775 L28.4337,40.6435 L28.4337,40.9815 L28.1017,40.9225 L26.3417,40.6055 L26.1087,40.5635 L26.1087,40.3275 Z" id="Fill-93" fill="#231F20"></path>
                <path d="M31.6425,40.3881 L31.6415,40.9851 L32.8375,41.2001 L32.8375,40.6061 L31.6425,40.3881 Z M31.0775,41.2211 L31.0785,40.0501 L31.0785,39.7121 L31.4105,39.7721 L33.1705,40.0931 L33.4025,40.1361 L33.4025,40.3711 L33.4015,41.5371 L33.4015,41.8751 L33.0695,41.8151 L31.3095,41.4991 L31.0765,41.4571 L31.0775,41.2211 Z" id="Fill-94" fill="#231F20"></path>
                <path d="M12.9027,58.2436 L12.9027,58.8336 L14.0977,59.1196 L14.0987,58.5336 L12.9027,58.2436 Z M12.3377,59.0556 L12.3387,57.8856 L12.3397,57.5256 L12.6877,57.6106 L14.4467,58.0366 L14.6627,58.0886 L14.6627,58.3106 L14.6627,59.4776 L14.6617,59.8366 L14.3147,59.7526 L12.5547,59.3306 L12.3377,59.2786 L12.3377,59.0556 Z" id="Fill-95" fill="#231F20"></path>
                <path d="M17.8568,59.4311 L17.8568,60.0201 L19.0518,60.3061 L19.0518,59.7201 L17.8568,59.4311 Z M17.2918,60.2431 L17.2928,59.0721 L17.2928,58.7131 L17.6418,58.7971 L19.4008,59.2231 L19.6168,59.2761 L19.6168,59.4971 L19.6158,60.6641 L19.6158,61.0231 L19.2688,60.9391 L17.5078,60.5171 L17.2908,60.4651 L17.2918,60.2431 Z" id="Fill-96" fill="#231F20"></path>
                <path d="M26.6337,61.5336 L26.6337,62.1236 L27.8287,62.4096 L27.8297,61.8226 L26.6337,61.5336 Z M26.0687,62.3456 L26.0697,61.1756 L26.0707,60.8156 L26.4187,60.8996 L28.1777,61.3266 L28.3937,61.3786 L28.3937,61.6006 L28.3937,62.7676 L28.3937,63.1256 L28.0457,63.0426 L26.2857,62.6206 L26.0677,62.5686 L26.0687,62.3456 Z" id="Fill-97" fill="#231F20"></path>
                <path d="M31.6014,62.724 L31.6014,63.314 L32.7974,63.6 L32.7974,63.013 L31.6014,62.724 Z M31.0364,63.536 L31.0374,62.365 L31.0384,62.006 L31.3864,62.09 L33.1454,62.516 L33.3624,62.569 L33.3624,62.791 L33.3614,63.957 L33.3614,64.316 L33.0144,64.233 L31.2534,63.811 L31.0364,63.759 L31.0364,63.536 Z" id="Fill-98" fill="#231F20"></path>
                <polygon id="Fill-99" fill="#231F20" points="31.4064 89.3189 31.3984 106.8819 31.9634 106.8819 31.9704 89.3189"></polygon>
                <path d="M127.3915,4.9189 L50.9275,38.1359 L50.8515,38.1689 L50.7705,38.1559 L7.0865,31.1369 L5.9475,30.9539 L7.0415,30.5899 L96.5675,0.8419 L96.6275,0.8219 L96.6875,0.8289 L127.3105,4.3779 L128.3565,4.4999 L127.3915,4.9189 Z M50.7775,37.5849 L126.2015,4.8189 L96.6835,1.3979 L8.3135,30.7619 L50.7775,37.5849 Z" id="Fill-100" fill="#231F20"></path>
                <polygon id="Fill-101" fill="#231F20" points="14.3339 28.1977 57.3559 34.7727 57.2719 35.3327 14.2499 28.7587"></polygon>
                <polygon id="Fill-102" fill="#231F20" points="21.0502 25.9657 63.4012 32.1457 63.3212 32.7057 20.9702 26.5257"></polygon>
                <polygon id="Fill-103" fill="#231F20" points="27.2865 23.8925 69.1765 29.6365 69.1015 30.1965 27.2115 24.4525"></polygon>
                <polygon id="Fill-104" fill="#231F20" points="33.7137 21.7548 75.4137 26.9238 75.3447 27.4868 33.6447 22.3168"></polygon>
                <polygon id="Fill-105" fill="#231F20" points="40.3822 19.5385 81.3232 24.3555 81.2592 24.9175 40.3182 20.1005"></polygon>
                <polygon id="Fill-106" fill="#231F20" points="46.618 17.4652 87.234 21.7872 87.174 22.3492 46.559 18.0272"></polygon>
                <polygon id="Fill-107" fill="#231F20" points="52.9999 15.3446 92.5199 19.4906 92.4619 20.0526 52.9419 15.9066"></polygon>
                <polygon id="Fill-108" fill="#231F20" points="58.6122 13.4789 97.6702 17.2519 97.6162 17.8149 58.5592 14.0409"></polygon>
                <polygon id="Fill-109" fill="#231F20" points="64.5145 11.5175 102.5995 15.1105 102.5465 15.6735 64.4615 12.0795"></polygon>
                <polygon id="Fill-110" fill="#231F20" points="70.4642 9.5404 107.5282 12.9694 107.4772 13.5314 70.4132 10.1024"></polygon>
                <polygon id="Fill-111" fill="#231F20" points="76.2225 7.6264 112.3245 10.8854 112.2725 11.4484 76.1715 8.1884"></polygon>
                <polygon id="Fill-112" fill="#231F20" points="82.4657 5.5541 116.3047 9.1581 116.2447 9.7211 82.4057 6.1161"></polygon>
                <polygon id="Fill-113" fill="#231F20" points="123.4935 6.5707 92.2765 2.8357 92.3435 2.2727 123.5595 6.0087"></polygon>
                <polygon id="Fill-114" fill="#231F20" points="87.7953 3.7836 120.1113 7.5056 120.0473 8.0686 87.7313 4.3456"></polygon>
            </g>
        </g>
    </g>
</svg>