<?xml version="1.0" encoding="UTF-8"?>
<svg width="132px" height="119px" viewBox="0 0 132 119" version="1.1" xmlns="http://www.w3.org/2000/svg" xmlns:xlink="http://www.w3.org/1999/xlink">
    <!-- Generator: sketchtool 50.1 (55044) - http://www.bohemiancoding.com/sketch -->
    <title>571B2A71-ACAF-4B46-BD6F-AB41656AD922</title>
    <desc>Created with sketchtool.</desc>
    <defs></defs>
    <g id="Tools" stroke="none" stroke-width="1" fill="none" fill-rule="evenodd">
        <g id="Tools---Container-Types" transform="translate(-592.000000, -1590.000000)">
            <g id="containers4" transform="translate(592.000000, 1590.000000)">
                <polygon id="Fill-1" fill="#FEFEFE" points="96.4719 -0.0001 94.3969 0.6879 94.4909 44.4929 54.3829 63.6519 54.4049 38.1729 4.6189 30.1759 -0.0001 31.6879 -0.0001 100.2189 50.7809 118.4929 131.9859 56.9789 131.8819 3.9609"></polygon>
                <polygon id="Fill-2" fill="#231F20" points="0 31.688 0 31.898 0 100.021 0 100.219 0.188 100.286 50.4 118.356 50.547 118.409 50.779 118.231 50.319 40.216 50.318 39.977 50.083 39.937 46.764 39.383 46.67 39.94 49.756 40.457 50.211 117.688 0.567 99.823 0.567 32.232 2.722 32.592 2.813 32.035 0.261 31.608"></polygon>
                <path d="M96.4719,-0.0001 L96.4159,0.0179 L94.5929,0.6169 L94.3969,0.6879 L94.7669,1.1559 L96.5919,0.5559 L96.4719,-0.0001 Z M129.7769,4.7089 L130.0049,5.2259 L131.7129,4.4729 L131.4859,3.9549 L129.7769,4.7089 Z M0.1959,31.6289 L0.3709,32.1669 L4.7349,30.7329 L4.6189,30.1759 L0.1959,31.6289 Z M49.9219,39.9569 L50.1509,40.4759 L54.2369,38.6719 L54.0089,38.1549 L49.9219,39.9569 Z" id="Fill-3" fill="#231F20"></path>
                <polygon id="Fill-4" fill="#231F20" points="50.3244 117.8639 50.6664 118.3159 131.8754 57.0619 131.9854 56.9789 131.9864 56.8359 131.5344 56.6099"></polygon>
                <polygon id="Fill-5" fill="#231F20" points="2.4849 32.3135 2.4549 100.9035 3.0209 100.9035 3.0489 32.3135"></polygon>
                <path d="M129.7728,7.5293 L130.0108,8.0433 L131.7238,7.2533 L131.4868,6.7393 L129.7728,7.5293 Z M0.2328,35.9133 L2.7158,36.3603 L2.8148,35.8043 L0.3338,35.3583 L0.2328,35.9133 Z M50.0248,44.2973 L46.7668,43.7113 L46.6678,44.2663 L50.0128,44.8683 L50.1008,44.8843 L50.1818,44.8473 L54.2378,42.9773 L54.0008,42.4633 L50.0248,44.2973 Z" id="Fill-6" fill="#231F20"></path>
                <polygon id="Fill-7" fill="#231F20" points="46.4355 39.662 46.4325 116.73 46.9975 116.73 46.9995 39.662"></polygon>
                <polygon id="Fill-8" fill="#231F20" points="50.4207 113.0372 0.3757 95.8152 0.1917 96.3502 50.3767 113.6202 50.5157 113.6692 50.6347 113.5812 131.8657 53.9892 131.5307 53.5322"></polygon>
                <path d="M127.166,4.4054 L128.877,3.6624 L129.103,4.1804 L127.392,4.9244 L127.166,4.4054 Z M46.604,39.4024 L50.702,37.6234 L50.927,38.1404 L46.831,39.9214 L46.604,39.4024 Z" id="Fill-9" fill="#231F20"></path>
                <path d="M96.5682,0.8477 L96.7442,1.3837 L98.5712,0.7757 L98.3942,0.2407 L96.5682,0.8477 Z M2.6782,32.0457 L2.8552,32.5807 L7.2192,31.1307 L7.0422,30.5947 L2.6782,32.0457 Z" id="Fill-10" fill="#231F20"></path>
                <path d="M50.8589,37.6026 L54.1669,38.1346 L54.4049,38.1726 L54.4049,38.4136 L54.3389,115.4046 L53.7749,115.4046 L53.8399,38.6546 L50.7709,38.1606 L50.8589,37.6026 Z M4.6189,30.1756 L7.1749,30.5836 L7.0869,31.1416 L4.6029,30.7436 L4.6189,30.1756 Z" id="Fill-11" fill="#231F20"></path>
                <polygon id="Fill-12" fill="#231F20" points="96.4728 0.5678 131.3178 4.4668 131.4228 56.8358 131.9868 56.8358 131.8828 4.2138 131.8818 3.9608 131.6308 3.9318 96.5358 0.0058 96.4718 -0.0002"></polygon>
                <polygon id="Fill-13" fill="#231F20" points="94.7114 0.6051 129.9234 4.6861 130.1754 4.7151 130.1754 4.9671 130.1754 58.2031 129.6074 58.2031 129.6074 5.2191 94.6484 1.1671"></polygon>
                <polygon id="Fill-14" fill="#231F20" points="94.4919 44.6714 95.0559 44.6714 94.9619 0.8854 94.3979 0.6874"></polygon>
                <polygon id="Fill-15" fill="#231F20" points="53.9009 106.087 129.2059 52.408 94.8069 44.968 54.2229 64.355 53.9789 63.846 94.6519 44.416 94.7409 44.374 94.8339 44.394 129.9519 51.99 130.5769 52.125 130.0549 52.497 54.2289 106.547"></polygon>
                <polygon id="Fill-16" fill="#231F20" points="96.3738 1.115 96.4088 45.086 96.9728 45.086 96.9378 1.115"></polygon>
                <polygon id="Fill-17" fill="#231F20" points="126.9963 4.6646 127.0353 51.7106 127.5993 51.7106 127.5603 4.6646"></polygon>
                <polygon id="Fill-18" fill="#231F20" points="129.8579 8.0675 94.6519 3.7755 94.7179 3.2125 129.9239 7.5055"></polygon>
                <polygon id="Fill-19" fill="#231F20" points="127.4751 51.9434 54.2271 101.5924 53.9111 101.1264 127.1591 51.4764"></polygon>
                <polygon id="Fill-20" fill="#231F20" points="96.8188 45.3385 54.2258 66.9115 53.9708 66.4065 96.5638 44.8335"></polygon>
                <polygon id="Fill-21" fill="#231F20" points="7.1753 30.5841 50.8593 37.6031 50.7713 38.1611 7.0863 31.1421"></polygon>
                <polygon id="Fill-22" fill="#231F20" points="2.8149 35.8048 46.7669 43.7108 46.6679 44.2668 2.7149 36.3608"></polygon>
                <polygon id="Fill-23" fill="#231F20" points="2.8135 32.0343 46.7645 39.3833 46.6705 39.9403 2.7215 32.5923"></polygon>
                <polygon id="Fill-24" fill="#231F20" points="56.8657 65.0225 92.8017 74.8835 92.6527 75.4285 56.7177 65.5665"></polygon>
                <polygon id="Fill-25" fill="#231F20" points="88.1069 78.5089 54.0219 69.0099 54.1719 68.4659 88.2579 77.9639"></polygon>
                <polygon id="Fill-26" fill="#231F20" points="64.3335 61.2413 98.7575 70.8473 98.6065 71.3923 64.1825 61.7863"></polygon>
                <polygon id="Fill-27" fill="#231F20" points="102.6108 68.6807 68.6198 59.5407 68.7658 58.9927 102.7568 68.1337"></polygon>
                <path d="M80.0874,66.1348 L73.3984,70.0558 L73.1124,69.5698 L79.8024,65.6478 L80.0874,66.1348 Z M53.9454,80.6088 L68.1854,72.4568 L68.4664,72.9488 L54.2274,81.1008 L53.9454,80.6088 Z M110.5234,48.2898 L84.2954,63.6678 L84.0094,63.1808 L110.2374,47.8028 L110.5234,48.2898 Z" id="Fill-28" fill="#231F20"></path>
                <path d="M77.9731,75.587 L54.2301,90.724 L53.9271,90.248 L77.6691,75.111 L77.9731,75.587 Z M88.9371,68.596 L82.6691,72.593 L82.3661,72.116 L88.6341,68.12 L88.9371,68.596 Z M118.1951,49.942 L93.0061,66.002 L92.7021,65.526 L117.8921,49.466 L118.1951,49.942 Z" id="Fill-29" fill="#231F20"></path>
                <path d="M71.5444,63.7569 L64.5244,67.6279 L64.2524,67.1319 L71.2724,63.2609 L71.5444,63.7569 Z M102.6674,46.5969 L75.8254,61.3969 L75.5534,60.9009 L102.3964,46.1009 L102.6674,46.5969 Z" id="Fill-30" fill="#231F20"></path>
                <polygon id="Fill-31" fill="#231F20" points="59.4331 70.4347 54.2291 73.3037 53.9571 72.8077 59.1611 69.9387"></polygon>
                <polygon id="Fill-32" fill="#231F20" points="22.6008 39.7016 22.6298 103.8696 23.1938 103.8696 23.1648 39.7016"></polygon>
                <polygon id="Fill-33" fill="#231F20" points="34.4538 41.8337 34.4408 107.9337 35.0048 107.9337 35.0178 41.8337"></polygon>
                <polygon id="Fill-34" fill="#231F20" points="11.8881 37.7747 11.9191 100.1837 12.4831 100.1837 12.4521 37.7747"></polygon>
                <polygon id="Fill-35" fill="#231F20" points="98.1981 3.9563 98.1731 44.1113 98.7381 44.1113 98.7631 3.9563"></polygon>
                <polygon id="Fill-36" fill="#231F20" points="96.5552 44.838 98.3192 43.863 98.4092 43.814 98.5102 43.834 127.3702 49.59 127.2602 50.146 98.5002 44.409 96.8272 45.334"></polygon>
                <polygon id="Fill-37" fill="#231F20" points="111.6756 5.5997 111.7216 46.9887 112.2856 46.9887 112.2396 5.5997"></polygon>
                <polygon id="Fill-38" fill="#231F20" points="104.1597 4.6835 104.1537 45.3045 104.7187 45.3045 104.7237 4.6835"></polygon>
                <polygon id="Fill-39" fill="#231F20" points="119.5173 6.5555 119.5313 48.3715 120.0953 48.3715 120.0803 6.5555"></polygon>
            </g>
        </g>
    </g>
</svg>