<?xml version="1.0" encoding="UTF-8"?>
<svg width="132px" height="119px" viewBox="0 0 132 119" version="1.1" xmlns="http://www.w3.org/2000/svg" xmlns:xlink="http://www.w3.org/1999/xlink">
    <!-- Generator: sketchtool 50.1 (55044) - http://www.bohemiancoding.com/sketch -->
    <title>9F1A406C-D03A-411D-BB2A-CC62439FF052</title>
    <desc>Created with sketchtool.</desc>
    <defs></defs>
    <g id="Tools" stroke="none" stroke-width="1" fill="none" fill-rule="evenodd">
        <g id="Tools---Container-Types" transform="translate(-591.000000, -1219.000000)">
            <g id="containers3" transform="translate(591.000000, 1219.000000)">
                <polygon id="Fill-1" fill="#FEFEFE" points="96.4755 0.0003 -0.0005 31.7073 -0.0005 100.2213 50.5405 118.4093 50.7785 118.2343 131.8745 57.0643 131.8825 3.9633"></polygon>
                <polygon id="Fill-2" fill="#231F20" points="100.231 16.301 100.798 16.301 100.798 3.348 100.231 3.348"></polygon>
                <polygon id="Fill-3" fill="#231F20" points="121.5828 5.8602 121.5848 7.0252 122.1488 7.0252 122.1468 5.8602"></polygon>
                <polygon id="Fill-4" fill="#231F20" points="117.0207 5.3229 117.0227 9.0069 117.5877 9.0069 117.5867 5.3229"></polygon>
                <polygon id="Fill-5" fill="#231F20" points="112.5324 4.7955 112.5374 10.9555 113.1024 10.9555 113.0984 4.7955"></polygon>
                <polygon id="Fill-6" fill="#231F20" points="108.0315 4.2663 108.0375 12.9103 108.6025 12.9103 108.5955 4.2663"></polygon>
                <polygon id="Fill-7" fill="#231F20" points="103.5405 3.738 103.5465 14.861 104.1115 14.861 104.1055 3.738"></polygon>
                <polygon id="Fill-8" fill="#231F20" points="123.418 6.228 123.985 6.228 123.985 6.075 123.418 6.075"></polygon>
                <polygon id="Fill-9" fill="#231F20" points="118.8738 5.5407 118.8748 8.2017 119.4388 8.2017 119.4388 5.5407"></polygon>
                <polygon id="Fill-10" fill="#231F20" points="114.3819 5.0133 114.3859 10.1533 114.9499 10.1533 114.9469 5.0133"></polygon>
                <polygon id="Fill-11" fill="#231F20" points="109.8819 4.4832 109.8859 12.1072 110.4509 12.1072 110.4469 4.4832"></polygon>
                <polygon id="Fill-12" fill="#231F20" points="105.3936 3.9558 105.3966 14.0578 105.9616 14.0578 105.9576 3.9558"></polygon>
                <polygon id="Fill-13" fill="#231F20" points="119.6964 5.6379 119.6994 7.8439 120.2644 7.8439 120.2614 5.6379"></polygon>
                <polygon id="Fill-14" fill="#231F20" points="128.657 3.952 129.224 3.952 129.224 3.925 128.657 3.925"></polygon>
                <polygon id="Fill-15" fill="#231F20" points="115.1559 5.1033 115.1569 9.8173 115.7219 9.8173 115.7199 5.1033"></polygon>
                <polygon id="Fill-16" fill="#231F20" points="110.664 4.5759 110.667 11.7679 111.231 11.7679 111.228 4.5759"></polygon>
                <polygon id="Fill-17" fill="#231F20" points="106.164 4.0458 106.168 13.7228 106.732 13.7228 106.728 4.0458"></polygon>
                <polygon id="Fill-18" fill="#231F20" points="101.6757 3.5184 101.6797 15.6724 102.2437 15.6724 102.2397 3.5184"></polygon>
                <path d="M0,31.7073 L0,31.9073 L0,100.0303 L0,100.2283 L0.188,100.2953 L50.4,118.3653 L50.538,118.4163 L50.542,118.4163 L50.779,118.2403 L50.32,40.2253 L50.318,39.9863 L50.083,39.9473 L0.261,31.6163 L0,31.7073 Z M0.567,99.8323 L0.567,32.2413 L49.757,40.4663 L50.211,117.6973 L0.567,99.8323 Z" id="Fill-19" fill="#231F20"></path>
                <path d="M0.1962,31.638 L0.3712,32.176 L96.5922,0.565 L96.4162,0.027 L0.1962,31.638 Z M49.9232,39.967 L50.1512,40.485 L131.7142,4.482 L131.4852,3.964 L49.9232,39.967 Z" id="Fill-20" fill="#231F20"></path>
                <polygon id="Fill-21" fill="#231F20" points="50.3253 117.8733 50.6663 118.3263 131.9863 56.9873 131.9863 56.8453 131.5343 56.6193"></polygon>
                <polygon id="Fill-22" fill="#231F20" points="2.4849 32.3229 2.4549 100.9129 3.0209 100.9129 3.0489 32.3229"></polygon>
                <polygon id="Fill-23" fill="#231F20" points="50.0247 44.3064 0.3337 35.3674 0.2337 35.9234 50.0127 44.8784 50.1007 44.8944 50.1817 44.8574 131.7237 7.2624 131.4867 6.7484"></polygon>
                <polygon id="Fill-24" fill="#231F20" points="46.4346 39.6705 46.4326 116.7385 46.9976 116.7385 46.9996 39.6705"></polygon>
                <polygon id="Fill-25" fill="#231F20" points="50.4207 113.0466 0.3757 95.8256 0.1917 96.3596 50.3757 113.6306 50.5147 113.6786 50.6357 113.5906 131.8657 53.9986 131.5307 53.5416"></polygon>
                <polygon id="Fill-26" fill="#231F20" points="46.605 39.4121 128.877 3.6721 129.103 4.1901 46.831 39.9301"></polygon>
                <polygon id="Fill-27" fill="#231F20" points="2.6784 32.0547 2.8554 32.5897 98.5714 0.7857 98.3944 0.2497"></polygon>
                <polygon id="Fill-28" fill="#231F20" points="4.6914 30.1948 54.1674 38.1438 54.4054 38.1818 54.4054 38.4228 54.3394 115.4138 53.7744 115.4138 53.8404 38.6638 4.6034 30.7528"></polygon>
                <polygon id="Fill-29" fill="#231F20" points="96.4161 0.0273 96.4731 0.5773 131.3181 4.4763 131.4221 56.8453 131.9871 56.8453 131.8821 4.2223 131.8821 3.9693 131.6311 3.9413 96.5361 0.0143 96.4751 0.0073"></polygon>
                <polygon id="Fill-30" fill="#231F20" points="94.7114 0.6142 129.9234 4.6962 130.1744 4.7252 130.1744 4.9772 130.1744 58.2122 129.6074 58.2122 129.6074 5.2292 94.6484 1.1762"></polygon>
                <polygon id="Fill-31" fill="#231F20" points="96.3738 1.1244 96.4138 17.9594 96.9778 17.9594 96.9378 1.1244"></polygon>
                <polygon id="Fill-32" fill="#231F20" points="123.9458 6.3891 96.6918 3.1841 14.3728 32.2871 14.1848 31.7541 96.5658 2.6291 96.6288 2.6071 96.6918 2.6141 124.0098 5.8271"></polygon>
                <polygon id="Fill-33" fill="#231F20" points="98.199 3.1089 98.186 17.1899 98.751 17.1899 98.763 3.1089"></polygon>
                <polygon id="Fill-34" fill="#231F20" points="94.3974 3.5958 94.3984 18.8348 94.9634 18.8348 94.9624 3.5958"></polygon>
                <path d="M17.0527,32.5117 L17.0537,30.9397 L17.6187,30.9397 L17.6167,32.5117 L17.0527,32.5117 Z M92.8397,19.5117 L93.4067,19.5117 L93.4067,4.1457 L92.8397,4.1457 L92.8397,19.5117 Z" id="Fill-35" fill="#231F20"></path>
                <path d="M53.6067,18.0174 L53.5997,36.5594 L54.1647,36.5594 L54.1717,18.0174 L53.6067,18.0174 Z M53.5977,38.5294 L54.1647,38.5294 L54.1647,38.3834 L53.5977,38.3834 L53.5977,38.5294 Z" id="Fill-36" fill="#231F20"></path>
                <polygon id="Fill-37" fill="#231F20" points="35.6841 24.3534 35.6911 35.5074 36.2561 35.5074 36.2491 24.3534"></polygon>
                <polygon id="Fill-38" fill="#231F20" points="71.5311 11.6796 71.5651 28.7546 72.1301 28.7546 72.0951 11.6796"></polygon>
                <polygon id="Fill-39" fill="#231F20" points="26.6805 27.5367 26.6845 34.0597 27.2495 34.0597 27.2445 27.5367"></polygon>
                <polygon id="Fill-40" fill="#231F20" points="31.1814 25.9455 31.1874 34.7835 31.7524 34.7835 31.7464 25.9455"></polygon>
                <polygon id="Fill-41" fill="#231F20" points="22.2066 29.1189 22.2066 33.3399 22.7716 33.3399 22.7706 29.1189"></polygon>
                <polygon id="Fill-42" fill="#231F20" points="40.1769 22.7649 40.1809 36.2279 40.7459 36.2279 40.7399 22.7649"></polygon>
                <polygon id="Fill-43" fill="#231F20" points="44.6535 21.1827 44.6585 36.9477 45.2235 36.9477 45.2175 21.1827"></polygon>
                <polygon id="Fill-44" fill="#231F20" points="49.1283 19.6005 49.1333 37.6665 49.6983 37.6665 49.6923 19.6005"></polygon>
                <polygon id="Fill-45" fill="#231F20" points="58.0887 16.4325 58.0787 34.6125 58.6427 34.6125 58.6527 16.4325"></polygon>
                <polygon id="Fill-46" fill="#231F20" points="62.5554 14.853 62.5544 32.669 63.1184 32.669 63.1204 14.853"></polygon>
                <polygon id="Fill-47" fill="#231F20" points="67.0104 13.278 67.0084 30.734 67.5724 30.734 67.5754 13.278"></polygon>
                <polygon id="Fill-48" fill="#231F20" points="76.0608 10.0785 76.0688 26.7985 76.6328 26.7985 76.6248 10.0785"></polygon>
                <polygon id="Fill-49" fill="#231F20" points="80.5536 8.49 80.5676 24.844 81.1316 24.844 81.1176 8.49"></polygon>
                <polygon id="Fill-50" fill="#231F20" points="85.0509 6.8997 85.0629 22.8907 85.6289 22.8907 85.6169 6.8997"></polygon>
                <polygon id="Fill-51" fill="#231F20" points="89.5383 5.313 89.5463 20.942 90.1103 20.942 90.1023 5.313"></polygon>
                <polygon id="Fill-52" fill="#231F20" points="51.7491 18.6735 51.7441 37.3655 52.3091 37.3655 52.3131 18.6735"></polygon>
                <polygon id="Fill-53" fill="#231F20" points="33.8265 25.0104 33.8305 35.2084 34.3945 35.2084 34.3905 25.0104"></polygon>
                <polygon id="Fill-54" fill="#231F20" points="69.6816 12.3339 69.7036 29.5639 70.2686 29.5639 70.2456 12.3339"></polygon>
                <polygon id="Fill-55" fill="#231F20" points="24.8211 28.1937 24.8231 33.7607 25.3881 33.7607 25.3851 28.1937"></polygon>
                <polygon id="Fill-56" fill="#231F20" points="29.3238 26.6016 29.3268 34.4846 29.8908 34.4846 29.8878 26.6016"></polygon>
                <polygon id="Fill-57" fill="#231F20" points="20.349 33.041 20.913 33.041 20.913 29.775 20.349 29.775"></polygon>
                <polygon id="Fill-58" fill="#231F20" points="38.3184 23.4219 38.3214 35.9289 38.8854 35.9289 38.8834 23.4219"></polygon>
                <polygon id="Fill-59" fill="#231F20" points="42.7959 21.8397 42.7989 36.6497 43.3639 36.6497 43.3599 21.8397"></polygon>
                <polygon id="Fill-60" fill="#231F20" points="47.2707 20.2575 47.2747 37.3675 47.8387 37.3675 47.8347 20.2575"></polygon>
                <polygon id="Fill-61" fill="#231F20" points="56.2293 17.0895 56.2233 35.4185 56.7883 35.4185 56.7933 17.0895"></polygon>
                <polygon id="Fill-62" fill="#231F20" points="60.6978 15.51 60.6968 33.476 61.2618 33.476 61.2628 15.51"></polygon>
                <polygon id="Fill-63" fill="#231F20" points="65.1519 13.9359 65.1509 31.5409 65.7159 31.5409 65.7169 13.9359"></polygon>
                <polygon id="Fill-64" fill="#231F20" points="74.2059 10.7346 74.2109 27.6046 74.7749 27.6046 74.7689 10.7346"></polygon>
                <polygon id="Fill-65" fill="#231F20" points="78.6996 9.1452 78.7086 25.6512 79.2726 25.6512 79.2636 9.1452"></polygon>
                <polygon id="Fill-66" fill="#231F20" points="83.1987 7.5549 83.2057 23.6969 83.7707 23.6969 83.7627 7.5549"></polygon>
                <polygon id="Fill-67" fill="#231F20" points="87.6843 5.9691 87.6893 21.7501 88.2533 21.7501 88.2483 5.9691"></polygon>
                <polygon id="Fill-68" fill="#231F20" points="55.4652 17.3604 55.4602 35.7514 56.0252 35.7514 56.0292 17.3604"></polygon>
                <polygon id="Fill-69" fill="#231F20" points="37.5435 23.6955 37.5485 35.8045 38.1145 35.8045 38.1085 23.6955"></polygon>
                <polygon id="Fill-70" fill="#231F20" points="73.4022 11.0181 73.4232 27.9481 73.9882 27.9481 73.9662 11.0181"></polygon>
                <polygon id="Fill-71" fill="#231F20" points="28.539 26.8797 28.542 34.3577 29.107 34.3577 29.104 26.8797"></polygon>
                <polygon id="Fill-72" fill="#231F20" points="33.0408 25.2885 33.0458 35.0825 33.6108 35.0825 33.6058 25.2885"></polygon>
                <polygon id="Fill-73" fill="#231F20" points="24.0651 28.461 24.0661 33.639 24.6301 33.639 24.6301 28.461"></polygon>
                <polygon id="Fill-74" fill="#231F20" points="42.0363 22.1079 42.0393 36.5269 42.6033 36.5269 42.6003 22.1079"></polygon>
                <path d="M46.5129,20.5248 L46.5179,37.2458 L47.0819,37.2458 L47.0769,20.5248 L46.5129,20.5248 Z M46.5169,39.6848 L47.0829,39.6848 L47.0829,39.6348 L46.5169,39.6348 L46.5169,39.6848 Z" id="Fill-75" fill="#231F20"></path>
                <path d="M50.9877,18.9426 L50.9917,37.7856 L51.5567,37.7856 L51.5527,18.9426 L50.9877,18.9426 Z M50.9907,37.9646 L51.5577,37.9646 L51.5577,37.8856 L50.9907,37.8856 L50.9907,37.9646 Z" id="Fill-76" fill="#231F20"></path>
                <polygon id="Fill-77" fill="#231F20" points="59.9454 15.7764 59.9394 33.8044 60.5044 33.8044 60.5094 15.7764"></polygon>
                <polygon id="Fill-78" fill="#231F20" points="64.4148 14.196 64.4138 31.861 64.9778 31.861 64.9788 14.196"></polygon>
                <polygon id="Fill-79" fill="#231F20" points="68.8689 12.6219 68.8679 29.9259 69.4329 29.9259 69.4329 12.6219"></polygon>
                <polygon id="Fill-80" fill="#231F20" points="77.9229 9.4206 77.9279 25.9906 78.4929 25.9906 78.4879 9.4206"></polygon>
                <polygon id="Fill-81" fill="#231F20" points="82.4175 7.8312 82.4265 24.0362 82.9905 24.0362 82.9825 7.8312"></polygon>
                <polygon id="Fill-82" fill="#231F20" points="86.9166 6.2409 86.9246 22.0829 87.4886 22.0829 87.4806 6.2409"></polygon>
                <polygon id="Fill-83" fill="#231F20" points="91.4022 4.6551 91.4072 20.1351 91.9712 20.1351 91.9662 4.6551"></polygon>
                <polygon id="Fill-84" fill="#231F20" points="19.4391 30.0963 19.4411 32.8953 20.0051 32.8953 20.0041 30.0963"></polygon>
                <path d="M50.771,38.1699 L14.235,32.2999 L13.139,32.1239 L14.185,31.7539 L94.585,3.3289 L94.961,3.1959 L94.962,3.5959 L94.963,18.8349 L94.963,19.0209 L94.793,19.0939 L50.928,38.1499 L50.852,38.1839 L50.771,38.1699 Z M15.419,31.9179 L50.778,37.5989 L94.398,18.6489 L94.397,3.9959 L15.419,31.9179 Z" id="Fill-85" fill="#231F20"></path>
                <path d="M129.6079,54.9526 L129.6079,8.2376 L54.4009,42.9116 L54.3439,110.1676 L129.6079,54.9526 Z M130.1739,7.8376 L130.1739,55.0956 L130.1739,55.2386 L130.0579,55.3236 L54.2289,110.9546 L53.7779,111.2846 L53.7789,110.7256 L53.8369,42.7306 L53.8369,42.5496 L54.0009,42.4736 L129.6819,7.5806 L129.7999,7.8376 L130.1739,7.8376 Z" id="Fill-86" fill="#231F20"></path>
                <polygon id="Fill-87" fill="#231F20" points="90.3834 25.8807 90.3604 83.8897 90.9254 83.8897 90.9474 25.8807"></polygon>
                <polygon id="Fill-88" fill="#231F20" points="72.4392 34.1535 72.4782 97.0085 73.0422 97.0085 73.0032 34.1535"></polygon>
                <polygon id="Fill-89" fill="#231F20" points="108.2502 17.643 108.3552 70.688 108.9212 70.688 108.8142 17.643"></polygon>
                <polygon id="Fill-90" fill="#231F20" points="63.4356 38.3043 63.4756 103.6123 64.0406 103.6123 64.0006 38.3043"></polygon>
                <polygon id="Fill-91" fill="#231F20" points="67.9365 36.2298 67.9775 100.3088 68.5425 100.3088 68.5015 36.2298"></polygon>
                <polygon id="Fill-92" fill="#231F20" points="58.9707 40.3635 58.9817 106.9095 59.5467 106.9095 59.5347 40.3635"></polygon>
                <polygon id="Fill-93" fill="#231F20" points="76.9356 32.0799 76.9576 93.7219 77.5226 93.7219 77.5016 32.0799"></polygon>
                <polygon id="Fill-94" fill="#231F20" points="81.4122 30.0162 81.4352 90.4372 82.0002 90.4372 81.9772 30.0162"></polygon>
                <polygon id="Fill-95" fill="#231F20" points="85.8888 27.9534 85.9058 87.1564 86.4698 87.1564 86.4538 27.9534"></polygon>
                <polygon id="Fill-96" fill="#231F20" points="94.8663 23.8143 94.8383 80.6043 95.4023 80.6043 95.4313 23.8143"></polygon>
                <polygon id="Fill-97" fill="#231F20" points="99.3249 21.7578 99.3199 77.3158 99.8859 77.3158 99.8899 21.7578"></polygon>
                <polygon id="Fill-98" fill="#231F20" points="103.779 19.7049 103.774 74.0469 104.341 74.0469 104.344 19.7049"></polygon>
                <polygon id="Fill-99" fill="#231F20" points="112.8168 15.5379 112.8408 67.3969 113.4058 67.3969 113.3808 15.5379"></polygon>
                <polygon id="Fill-100" fill="#231F20" points="117.3006 13.4706 117.3416 64.0956 117.9056 64.0956 117.8646 13.4706"></polygon>
                <polygon id="Fill-101" fill="#231F20" points="121.8006 11.3961 121.8366 60.7971 122.4006 60.7971 122.3646 11.3961"></polygon>
                <polygon id="Fill-102" fill="#231F20" points="126.2934 9.3243 126.3164 57.5103 126.8814 57.5103 126.8574 9.3243"></polygon>
                <polygon id="Fill-103" fill="#231F20" points="88.5213 26.7393 88.5073 85.2493 89.0723 85.2493 89.0863 26.7393"></polygon>
                <polygon id="Fill-104" fill="#231F20" points="70.5852 35.0085 70.6102 98.3785 71.1752 98.3785 71.1492 35.0085"></polygon>
                <polygon id="Fill-105" fill="#231F20" points="106.4187 18.4881 106.4867 72.0591 107.0517 72.0591 106.9827 18.4881"></polygon>
                <polygon id="Fill-106" fill="#231F20" points="61.5816 39.1593 61.6066 104.9823 62.1716 104.9823 62.1456 39.1593"></polygon>
                <polygon id="Fill-107" fill="#231F20" points="66.0825 37.0848 66.1095 101.6808 66.6735 101.6808 66.6475 37.0848"></polygon>
                <polygon id="Fill-108" fill="#231F20" points="57.114 41.2194 57.12 108.2744 57.686 108.2744 57.678 41.2194"></polygon>
                <polygon id="Fill-109" fill="#231F20" points="75.0816 32.9358 75.0956 95.0878 75.6596 95.0878 75.6456 32.9358"></polygon>
                <polygon id="Fill-110" fill="#231F20" points="79.5582 30.8712 79.5722 91.8042 80.1362 91.8042 80.1222 30.8712"></polygon>
                <polygon id="Fill-111" fill="#231F20" points="84.0339 28.8084 84.0449 88.5214 84.6099 88.5214 84.5979 28.8084"></polygon>
                <polygon id="Fill-112" fill="#231F20" points="93.0033 24.6729 92.9843 81.9629 93.5503 81.9629 93.5673 24.6729"></polygon>
                <polygon id="Fill-113" fill="#231F20" points="97.4664 22.6155 97.4634 78.6785 98.0284 78.6785 98.0304 22.6155"></polygon>
                <polygon id="Fill-114" fill="#231F20" points="101.9205 20.5617 101.9185 75.4107 102.4825 75.4107 102.4845 20.5617"></polygon>
                <polygon id="Fill-115" fill="#231F20" points="110.9655 16.3911 110.9805 68.7611 111.5455 68.7611 111.5295 16.3911"></polygon>
                <polygon id="Fill-116" fill="#231F20" points="115.4547 14.322 115.4797 65.46 116.0447 65.46 116.0187 14.322"></polygon>
                <polygon id="Fill-117" fill="#231F20" points="119.9538 12.2466 119.9768 62.1616 120.5418 62.1616 120.5178 12.2466"></polygon>
                <polygon id="Fill-118" fill="#231F20" points="124.443 10.1775 124.459 58.8735 125.023 58.8735 125.007 10.1775"></polygon>
                <polygon id="Fill-119" fill="#231F20" points="92.2374 25.0257 92.2234 82.5227 92.7884 82.5227 92.8024 25.0257"></polygon>
                <polygon id="Fill-120" fill="#231F20" points="74.3031 33.294 74.3271 95.651 74.8921 95.651 74.8671 33.294"></polygon>
                <polygon id="Fill-121" fill="#231F20" points="110.1375 16.7727 110.2055 69.3307 110.7695 69.3307 110.7025 16.7727"></polygon>
                <polygon id="Fill-122" fill="#231F20" points="65.2986 37.4457 65.3236 102.2567 65.8886 102.2567 65.8636 37.4457"></polygon>
                <polygon id="Fill-123" fill="#231F20" points="69.8004 35.3703 69.8264 98.9533 70.3904 98.9533 70.3644 35.3703"></polygon>
                <polygon id="Fill-124" fill="#231F20" points="60.831 39.5058 60.838 105.5488 61.402 105.5488 61.395 39.5058"></polygon>
                <polygon id="Fill-125" fill="#231F20" points="78.7986 31.2213 78.8126 92.3613 79.3766 92.3613 79.3626 31.2213"></polygon>
                <polygon id="Fill-126" fill="#231F20" points="83.2752 29.1585 83.2882 89.0765 83.8542 89.0765 83.8392 29.1585"></polygon>
                <polygon id="Fill-127" fill="#231F20" points="87.7518 27.0939 87.7628 85.7959 88.3268 85.7959 88.3158 27.0939"></polygon>
                <polygon id="Fill-128" fill="#231F20" points="96.7203 22.9593 96.7013 79.2373 97.2653 79.2373 97.2843 22.9593"></polygon>
                <polygon id="Fill-129" fill="#231F20" points="101.1834 20.901 101.1794 75.951 101.7454 75.951 101.7484 20.901"></polygon>
                <polygon id="Fill-130" fill="#231F20" points="105.6375 18.8472 105.6345 72.6842 106.1995 72.6842 106.2015 18.8472"></polygon>
                <polygon id="Fill-131" fill="#231F20" points="114.6834 14.6775 114.6984 66.0345 115.2634 66.0345 115.2474 14.6775"></polygon>
                <polygon id="Fill-132" fill="#231F20" points="119.1726 12.6075 119.1986 62.7335 119.7626 62.7335 119.7366 12.6075"></polygon>
                <polygon id="Fill-133" fill="#231F20" points="123.6717 10.533 123.6947 59.434 124.2597 59.434 124.2357 10.533"></polygon>
                <polygon id="Fill-134" fill="#231F20" points="128.1609 8.4639 128.1759 56.1469 128.7409 56.1469 128.7249 8.4639"></polygon>
                <polygon id="Fill-135" fill="#231F20" points="56.1987 41.6415 56.2277 108.9295 56.7917 108.9295 56.7637 41.6415"></polygon>
                <path d="M2.4575,96.937 L2.4835,36.092 L2.4835,35.754 L2.8155,35.814 L46.7675,43.721 L46.9995,43.763 L46.9995,43.999 L46.9985,112.071 L46.9985,112.467 L46.6245,112.338 L2.6475,97.205 L2.4575,97.139 L2.4575,96.937 Z M3.0475,36.429 L3.0225,96.735 L46.4335,111.674 L46.4355,44.234 L3.0475,36.429 Z" id="Fill-136" fill="#231F20"></path>
                <path d="M12.7089,37.9308 L12.7009,57.9878 L13.2659,57.9878 L13.2729,37.9308 L12.7089,37.9308 Z M12.7009,59.0748 L12.6919,83.6618 L13.2559,83.6618 L13.2649,59.0748 L12.7009,59.0748 Z" id="Fill-137" fill="#231F20"></path>
                <path d="M13.825,58.259 L14.393,58.259 L14.393,38.132 L13.825,38.132 L13.825,58.259 Z M13.826,100.849 L14.391,100.849 L14.391,59.427 L13.826,59.427 L13.826,100.849 Z" id="Fill-138" fill="#231F20"></path>
                <path d="M17.6634,38.8227 L17.6574,59.1747 L18.2224,59.1747 L18.2274,38.8227 L17.6634,38.8227 Z M17.6574,60.3457 L17.6434,102.1637 L18.2084,102.1637 L18.2224,60.3457 L17.6574,60.3457 Z" id="Fill-139" fill="#231F20"></path>
                <path d="M18.782,59.447 L19.348,59.447 L19.348,39.024 L18.782,39.024 L18.782,59.447 Z M18.783,60.614 L18.782,102.555 L19.347,102.555 L19.347,60.614 L18.783,60.614 Z" id="Fill-140" fill="#231F20"></path>
                <polygon id="Fill-141" fill="#231F20" points="22.4406 39.6822 22.4326 103.8112 22.9976 103.8112 23.0046 39.6822"></polygon>
                <path d="M26.4672,40.4058 L26.4602,61.2838 L27.0242,61.2838 L27.0322,40.4058 L26.4672,40.4058 Z M26.4592,62.4538 L26.4432,105.1908 L27.0082,105.1908 L27.0242,62.4538 L26.4592,62.4538 Z" id="Fill-142" fill="#231F20"></path>
                <path d="M27.584,61.556 L28.151,61.556 L28.151,40.608 L27.584,40.608 L27.584,61.556 Z M27.585,62.723 L27.585,105.585 L28.149,105.585 L28.15,62.723 L27.585,62.723 Z" id="Fill-143" fill="#231F20"></path>
                <path d="M31.4226,41.2977 L31.4166,62.4707 L31.9806,62.4707 L31.9866,41.2977 L31.4226,41.2977 Z M31.4166,63.5547 L31.4086,89.3337 L31.9726,89.3337 L31.9806,63.5547 L31.4166,63.5547 Z" id="Fill-144" fill="#231F20"></path>
                <path d="M32.54,62.744 L33.107,62.744 L33.107,41.5 L32.54,41.5 L32.54,62.744 Z M32.541,107.289 L33.105,107.289 L33.105,63.912 L32.541,63.912 L32.541,107.289 Z" id="Fill-145" fill="#231F20"></path>
                <path d="M5.4717,96.6899 L2.6487,95.7189 L2.4577,95.6539 L2.4577,95.4509 L2.4587,93.6939 L2.4587,93.3139 L2.8217,93.4219 L5.6447,94.2649 L5.8467,94.3249 L5.8467,94.5359 L5.8457,96.4219 L5.8457,96.8189 L5.4717,96.6899 Z M3.0227,95.2489 L5.2807,96.0259 L5.2817,94.7479 L3.0237,94.0739 L3.0227,95.2489 Z" id="Fill-146" fill="#231F20"></path>
                <path d="M5.479,78.6206 L2.656,77.6486 L2.466,77.5836 L2.466,77.3816 L2.467,75.6236 L2.467,75.2446 L2.83,75.3516 L5.652,76.1946 L5.854,76.2556 L5.854,76.4666 L5.854,78.3516 L5.853,78.7496 L5.479,78.6206 Z M3.031,77.1786 L5.289,77.9556 L5.289,76.6776 L3.031,76.0036 L3.031,77.1786 Z" id="Fill-147" fill="#231F20"></path>
                <path d="M5.5014,59.146 L2.6784,58.352 L2.4724,58.293 L2.4734,58.08 L2.4734,56.322 L2.4734,55.964 L2.8204,56.046 L5.6434,56.711 L5.8604,56.763 L5.8604,56.987 L5.8604,58.874 L5.8594,59.248 L5.5014,59.146 Z M3.0374,57.865 L5.2954,58.5 L5.2964,57.211 L3.0384,56.679 L3.0374,57.865 Z" id="Fill-148" fill="#231F20"></path>
                <path d="M5.5093,41.0752 L2.6863,40.2812 L2.4803,40.2232 L2.4803,40.0092 L2.4813,38.2522 L2.4813,37.8942 L2.8283,37.9762 L5.6503,38.6412 L5.8683,38.6922 L5.8683,38.9172 L5.8683,40.8032 L5.8673,41.1772 L5.5093,41.0752 Z M3.0453,39.7942 L5.3033,40.4292 L5.3033,39.1412 L3.0463,38.6092 L3.0453,39.7942 Z" id="Fill-149" fill="#231F20"></path>
                <path d="M46.624,110.9126 L43.801,109.9406 L43.611,109.8756 L43.611,109.6736 L43.612,107.9166 L43.612,107.5366 L43.975,107.6446 L46.797,108.4866 L46.999,108.5476 L46.999,108.7586 L46.998,110.6436 L46.998,111.0416 L46.624,110.9126 Z M44.175,109.4706 L46.434,110.2476 L46.434,108.9696 L44.176,108.2956 L44.175,109.4706 Z" id="Fill-150" fill="#231F20"></path>
                <path d="M46.6352,90.6548 L43.8122,89.7248 L43.6182,89.6618 L43.6182,89.4568 L43.6192,87.6998 L43.6192,87.3258 L43.9782,87.4268 L46.8012,88.2268 L47.0062,88.2858 L47.0062,88.4998 L47.0062,90.3858 L47.0052,90.7768 L46.6352,90.6548 Z M44.1832,89.2518 L46.4412,89.9948 L46.4422,88.7138 L44.1832,88.0738 L44.1832,89.2518 Z" id="Fill-151" fill="#231F20"></path>
                <path d="M46.6636,67.9633 L43.8406,67.2603 L43.6246,67.2063 L43.6256,66.9843 L43.6266,65.2283 L43.6266,64.8823 L43.9646,64.9503 L46.7876,65.5253 L47.0136,65.5703 L47.0136,65.8023 L47.0126,67.6883 L47.0126,68.0503 L46.6636,67.9633 Z M44.1906,66.7643 L46.4486,67.3263 L46.4486,66.0323 L44.1906,65.5733 L44.1906,66.7643 Z" id="Fill-152" fill="#231F20"></path>
                <path d="M46.6733,49.2495 L43.8503,48.5785 L43.6323,48.5265 L43.6333,48.3025 L43.6343,46.5455 L43.6343,46.2035 L43.9693,46.2675 L46.7923,46.8095 L47.0213,46.8535 L47.0213,47.0875 L47.0213,48.9735 L47.0213,49.3325 L46.6733,49.2495 Z M44.1973,48.0785 L46.4563,48.6155 L46.4563,47.3215 L44.1983,46.8875 L44.1973,48.0785 Z" id="Fill-153" fill="#231F20"></path>
                <path d="M34.1064,88.8286 L36.6634,89.5956 L36.8644,89.6556 L36.8644,89.8666 L36.8674,90.8176 L36.8684,91.1986 L36.5024,91.0876 L33.9434,90.3116 L34.1074,89.7706 L36.3014,90.4356 L36.3004,90.0776 L33.9444,89.3716 L34.1064,88.8286 Z M33.3844,90.1426 L32.7414,89.9486 L32.9054,89.4056 L33.5484,89.6006 L33.3844,90.1426 Z M32.9044,88.4696 L33.5474,88.6616 L33.3864,89.2036 L32.7434,89.0116 L32.9044,88.4696 Z M28.3774,88.6256 L27.7854,88.4456 L27.9484,87.9036 L28.5414,88.0836 L28.3774,88.6256 Z M31.6064,89.6026 L28.9364,88.7946 L29.1004,88.2536 L31.7704,89.0626 L31.6064,89.6026 Z M29.0994,87.3286 L31.7704,88.1296 L31.6084,88.6716 L28.9374,87.8716 L29.0994,87.3286 Z M27.9474,86.9836 L28.5404,87.1616 L28.3784,87.7046 L27.7864,87.5266 L27.9474,86.9836 Z M17.8484,85.4346 L17.3184,85.2746 L17.4824,84.7326 L18.0124,84.8926 L17.8484,85.4346 Z M17.4814,83.8496 L18.0114,84.0086 L17.8494,84.5516 L17.3194,84.3916 L17.4814,83.8496 Z M11.5654,83.5316 L8.6714,82.6546 L8.4684,82.5946 L8.4704,82.3826 L8.4764,81.5326 L8.4794,81.1546 L8.8394,81.2626 L11.7284,82.1276 L11.5664,82.6696 L9.0384,81.9126 L9.0364,82.1736 L11.7294,82.9886 L11.5654,83.5316 Z M12.8904,83.9326 L12.1244,83.7006 L12.2874,83.1586 L13.0544,83.3906 L12.8904,83.9326 Z M16.7594,85.1046 L14.0264,84.2756 L14.1904,83.7356 L16.9234,84.5646 L16.7594,85.1046 Z M14.1894,82.8636 L16.9224,83.6826 L16.7614,84.2246 L14.0274,83.4066 L14.1894,82.8636 Z M12.2864,82.2946 L13.0534,82.5236 L12.8914,83.0656 L12.1254,82.8366 L12.2864,82.2946 Z" id="Fill-154" fill="#231F20"></path>
                <polygon id="Fill-155" fill="#231F20" points="11.3638 84.5786 11.3638 81.2656 11.3638 80.9166 11.7058 80.9886 12.2638 81.1086 12.4888 81.1566 12.4888 81.3866 12.4888 84.7386 12.4888 85.1146 12.1288 85.0116 11.5698 84.8506 11.3638 84.7926"></polygon>
                <polygon id="Fill-156" fill="#231F20" points="16.5581 86.1762 16.5581 82.8632 16.5581 82.5132 16.9001 82.5862 17.4591 82.7052 17.6841 82.7542 17.6841 82.9832 17.6841 86.3352 17.6841 86.7112 17.3231 86.6082 16.7641 86.4482 16.5581 86.3902"></polygon>
                <polygon id="Fill-157" fill="#231F20" points="28.1763 89.479 28.1763 86.166 28.1763 85.816 28.5183 85.889 29.0773 86.009 29.3013 86.057 29.3013 86.286 29.3013 89.639 29.3013 90.014 28.9413 89.912 28.3823 89.751 28.1763 89.693"></polygon>
                <polygon id="Fill-158" fill="#231F20" points="33.1831 91.0356 33.1831 87.7226 33.1831 87.3726 33.5251 87.4456 34.0841 87.5656 34.3091 87.6146 34.3091 87.8436 34.3091 91.1956 34.3091 91.5716 33.9481 91.4686 33.3891 91.3076 33.1831 91.2496"></polygon>
                <path d="M12.1631,101.9692 L12.1551,100.2762 L12.1531,99.8772 L12.5291,100.0062 L14.6191,100.7252 L14.8091,100.7912 L14.8091,100.9932 L14.8031,102.8062 L14.8021,103.2252 L14.4151,103.0692 L12.3401,102.2312 L12.1631,102.1592 L12.1631,101.9692 Z M12.7221,100.6712 L12.7261,101.7772 L14.2401,102.3882 L14.2441,101.1962 L12.7221,100.6712 Z" id="Fill-159" fill="#231F20"></path>
                <path d="M17.1577,103.688 L17.1507,101.995 L17.1487,101.596 L17.5247,101.725 L19.6137,102.444 L19.8047,102.51 L19.8037,102.712 L19.7987,104.526 L19.7967,104.944 L19.4107,104.788 L17.3347,103.95 L17.1587,103.878 L17.1577,103.688 Z M17.7167,102.39 L17.7217,103.496 L19.2347,104.107 L19.2387,102.915 L17.7167,102.39 Z" id="Fill-160" fill="#231F20"></path>
                <path d="M25.9067,106.6987 L25.8987,105.0057 L25.8977,104.6067 L26.2737,104.7357 L28.3627,105.4547 L28.5527,105.5207 L28.5527,105.7227 L28.5467,107.5367 L28.5457,107.9547 L28.1597,107.7987 L26.0837,106.9607 L25.9077,106.8887 L25.9067,106.6987 Z M26.4657,105.4007 L26.4707,106.5067 L27.9837,107.1177 L27.9877,105.9257 L26.4657,105.4007 Z" id="Fill-161" fill="#231F20"></path>
                <path d="M30.9429,108.4321 L30.9349,106.7381 L30.9329,106.3401 L31.3089,106.4691 L33.3979,107.1881 L33.5889,107.2541 L33.5889,107.4551 L33.5829,109.2691 L33.5809,109.6881 L33.1949,109.5321 L31.1199,108.6941 L30.9429,108.6221 L30.9429,108.4321 Z M31.5019,107.1341 L31.5059,108.2401 L33.0199,108.8511 L33.0239,107.6581 L31.5019,107.1341 Z" id="Fill-162" fill="#231F20"></path>
                <path d="M12.9443,37.039 L12.9433,37.636 L14.1393,37.851 L14.1393,37.257 L12.9443,37.039 Z M12.3783,37.872 L12.3803,36.701 L12.3803,36.363 L12.7123,36.423 L14.4713,36.744 L14.7043,36.787 L14.7043,37.022 L14.7033,38.188 L14.7033,38.526 L14.3713,38.466 L12.6113,38.15 L12.3783,38.108 L12.3783,37.872 Z" id="Fill-163" fill="#231F20"></path>
                <path d="M17.8974,37.9301 L17.8974,38.5271 L19.0924,38.7421 L19.0934,38.1481 L17.8974,37.9301 Z M17.3324,38.7631 L17.3334,37.5921 L17.3334,37.2541 L17.6654,37.3141 L19.4254,37.6351 L19.6574,37.6771 L19.6574,37.9121 L19.6574,39.0791 L19.6574,39.4171 L19.3244,39.3571 L17.5644,39.0401 L17.3314,38.9991 L17.3324,38.7631 Z" id="Fill-164" fill="#231F20"></path>
                <path d="M26.6748,39.5092 L26.6738,40.1062 L27.8698,40.3212 L27.8698,39.7272 L26.6748,39.5092 Z M26.1088,40.3422 L26.1108,39.1712 L26.1108,38.8332 L26.4428,38.8932 L28.2028,39.2142 L28.4348,39.2572 L28.4348,39.4912 L28.4348,40.6582 L28.4338,40.9962 L28.1018,40.9362 L26.3418,40.6192 L26.1088,40.5782 L26.1088,40.3422 Z" id="Fill-165" fill="#231F20"></path>
                <path d="M31.6431,40.4028 L31.6421,40.9998 L32.8381,41.2148 L32.8381,40.6208 L31.6431,40.4028 Z M31.0771,41.2358 L31.0791,40.0648 L31.0791,39.7268 L31.4111,39.7868 L33.1701,40.1078 L33.4031,40.1508 L33.4031,40.3848 L33.4021,41.5518 L33.4021,41.8898 L33.0701,41.8298 L31.3101,41.5138 L31.0771,41.4718 L31.0771,41.2358 Z" id="Fill-166" fill="#231F20"></path>
                <path d="M12.9028,58.2583 L12.9028,58.8483 L14.0988,59.1343 L14.0988,58.5483 L12.9028,58.2583 Z M12.3378,59.0703 L12.3398,57.9003 L12.3398,57.5403 L12.6878,57.6243 L14.4468,58.0513 L14.6638,58.1033 L14.6638,58.3253 L14.6628,59.4923 L14.6628,59.8503 L14.3158,59.7673 L12.5548,59.3453 L12.3378,59.2933 L12.3378,59.0703 Z" id="Fill-167" fill="#231F20"></path>
                <path d="M17.8569,59.4448 L17.8569,60.0348 L19.0519,60.3208 L19.0529,59.7348 L17.8569,59.4448 Z M17.2919,60.2568 L17.2929,59.0868 L17.2929,58.7278 L17.6419,58.8118 L19.4009,59.2378 L19.6169,59.2908 L19.6169,59.5118 L19.6169,60.6788 L19.6169,61.0378 L19.2689,60.9538 L17.5079,60.5318 L17.2909,60.4798 L17.2919,60.2568 Z" id="Fill-168" fill="#231F20"></path>
                <path d="M26.6343,61.5483 L26.6333,62.1383 L27.8293,62.4243 L27.8293,61.8373 L26.6343,61.5483 Z M26.0683,62.3603 L26.0703,61.1903 L26.0703,60.8303 L26.4193,60.9143 L28.1783,61.3403 L28.3943,61.3933 L28.3943,61.6143 L28.3943,62.7823 L28.3933,63.1403 L28.0463,63.0573 L26.2853,62.6353 L26.0683,62.5833 L26.0683,62.3603 Z" id="Fill-169" fill="#231F20"></path>
                <path d="M31.602,62.7387 L31.602,63.3287 L32.797,63.6147 L32.797,63.0277 L31.602,62.7387 Z M31.037,63.5507 L31.038,62.3797 L31.038,62.0207 L31.387,62.1047 L33.146,62.5307 L33.363,62.5837 L33.363,62.8047 L33.361,63.9717 L33.361,64.3307 L33.014,64.2477 L31.254,63.8257 L31.037,63.7737 L31.037,63.5507 Z" id="Fill-170" fill="#231F20"></path>
                <polygon id="Fill-171" fill="#231F20" points="31.4064 89.3334 31.3994 106.8964 31.9634 106.8964 31.9714 89.3334"></polygon>
            </g>
        </g>
    </g>
</svg>