<?xml version="1.0" encoding="UTF-8"?>
<svg width="132px" height="119px" viewBox="0 0 132 119" version="1.1" xmlns="http://www.w3.org/2000/svg" xmlns:xlink="http://www.w3.org/1999/xlink">
    <!-- Generator: sketchtool 50.1 (55044) - http://www.bohemiancoding.com/sketch -->
    <title>CA198D11-5986-4264-ACA3-419BFD03829D</title>
    <desc>Created with sketchtool.</desc>
    <defs></defs>
    <g id="Tools" stroke="none" stroke-width="1" fill="none" fill-rule="evenodd">
        <g id="Tools---Container-Types" transform="translate(-591.000000, -857.000000)">
            <g id="containers2" transform="translate(591.000000, 857.000000)">
                <polygon id="Fill-1" fill="#FEFEFE" points="96.5358 0.0004 -0.0002 31.6854 -0.0002 100.0154 50.4008 118.3504 131.9868 56.9634 131.8828 3.9554"></polygon>
                <path d="M0,31.6858 L0,31.8918 L0,100.0158 L0,100.2138 L0.189,100.2808 L50.401,118.3508 L50.558,118.4078 L50.779,118.2258 L50.32,40.2108 L50.319,39.9718 L50.084,39.9328 L0.261,31.6018 L0,31.6858 Z M0.567,99.8168 L0.567,32.2268 L49.757,40.4518 L50.212,117.6828 L0.567,99.8168 Z" id="Fill-2" fill="#231F20"></path>
                <path d="M0.1962,31.6237 L0.3722,32.1607 L96.5912,0.5507 L96.4172,0.0117 L0.1962,31.6237 Z M49.9242,39.9527 L50.1512,40.4707 L131.7142,4.4667 L131.4862,3.9487 L49.9242,39.9527 Z" id="Fill-3" fill="#231F20"></path>
                <polygon id="Fill-4" fill="#231F20" points="50.3253 117.859 50.6663 118.312 131.8753 57.057 131.9863 56.963 131.5343 56.605"></polygon>
                <polygon id="Fill-5" fill="#231F20" points="2.4849 32.3077 2.4559 100.8987 3.0209 100.8987 3.0499 32.3077"></polygon>
                <polygon id="Fill-6" fill="#231F20" points="50.0247 44.2921 0.3337 35.3521 0.2337 35.9091 50.0127 44.8641 50.1017 44.8801 50.1827 44.8431 131.7247 7.2481 131.4877 6.7341"></polygon>
                <polygon id="Fill-7" fill="#231F20" points="46.4355 39.6562 46.4335 116.7252 46.9975 116.7252 46.9995 39.6562"></polygon>
                <polygon id="Fill-8" fill="#231F20" points="50.4207 113.0323 0.3757 95.8093 0.1917 96.3453 50.3767 113.6153 50.5157 113.6633 50.6357 113.5763 131.8657 53.9843 131.5317 53.5283"></polygon>
                <polygon id="Fill-9" fill="#231F20" points="46.6052 39.3977 128.8772 3.6567 129.1042 4.1747 46.8312 39.9157"></polygon>
                <polygon id="Fill-10" fill="#231F20" points="2.6793 32.0404 2.8563 32.5754 98.5713 0.7704 98.3953 0.2354"></polygon>
                <polygon id="Fill-11" fill="#231F20" points="4.6921 30.1804 54.1681 38.1294 54.4061 38.1674 54.4061 38.4084 54.3391 115.3994 53.7751 115.3994 53.8411 38.6484 4.6041 30.7384"></polygon>
                <polygon id="Fill-12" fill="#231F20" points="96.5358 0.0004 96.4738 0.5624 131.3188 4.4604 131.4228 56.8314 131.7928 56.8674 131.9868 56.9634 131.8838 4.2084 131.8828 3.9554 131.6318 3.9274"></polygon>
                <polygon id="Fill-13" fill="#231F20" points="94.7121 0.5998 129.9241 4.6808 130.1751 4.7098 130.1751 4.9618 130.1751 58.1988 129.6081 58.1988 129.6081 5.2138 94.6481 1.1618"></polygon>
                <path d="M129.6077,54.9382 L129.6077,8.2232 L54.4017,42.8962 L54.3447,110.1532 L129.6077,54.9382 Z M130.1747,7.8232 L130.1747,55.0812 L130.1747,55.2242 L130.0587,55.3092 L54.2287,110.9392 L53.7787,111.2702 L53.7797,110.7112 L53.8367,42.7152 L53.8367,42.5342 L54.0017,42.4592 L129.6817,7.5662 L129.8007,7.8232 L130.1747,7.8232 Z" id="Fill-14" fill="#231F20"></path>
                <polygon id="Fill-15" fill="#231F20" points="88.5213 26.7241 88.5073 85.2351 89.0713 85.2351 89.0863 26.7241"></polygon>
                <polygon id="Fill-16" fill="#231F20" points="70.5861 34.9942 70.6101 98.3632 71.1751 98.3632 71.1501 34.9942"></polygon>
                <polygon id="Fill-17" fill="#231F20" points="106.4178 18.4738 106.4858 72.0448 107.0518 72.0448 106.9828 18.4738"></polygon>
                <polygon id="Fill-18" fill="#231F20" points="61.5816 39.145 61.6066 104.968 62.1716 104.968 62.1456 39.145"></polygon>
                <polygon id="Fill-19" fill="#231F20" points="66.0825 37.0705 66.1095 101.6665 66.6745 101.6665 66.6475 37.0705"></polygon>
                <polygon id="Fill-20" fill="#231F20" points="57.114 41.2051 57.121 108.2591 57.686 108.2591 57.678 41.2051"></polygon>
                <polygon id="Fill-21" fill="#231F20" points="75.0816 32.9215 75.0956 95.0735 75.6606 95.0735 75.6466 32.9215"></polygon>
                <polygon id="Fill-22" fill="#231F20" points="79.5582 30.8569 79.5722 91.7899 80.1372 91.7899 80.1232 30.8569"></polygon>
                <polygon id="Fill-23" fill="#231F20" points="84.033 28.7932 84.045 88.5072 84.61 88.5072 84.599 28.7932"></polygon>
                <polygon id="Fill-24" fill="#231F20" points="93.0042 24.6577 92.9852 81.9487 93.5492 81.9487 93.5682 24.6577"></polygon>
                <polygon id="Fill-25" fill="#231F20" points="97.4673 22.6012 97.4623 78.6642 98.0293 78.6642 98.0313 22.6012"></polygon>
                <polygon id="Fill-26" fill="#231F20" points="101.9214 20.5474 101.9174 75.3964 102.4834 75.3964 102.4854 20.5474"></polygon>
                <polygon id="Fill-27" fill="#231F20" points="110.9655 16.3768 110.9805 68.7468 111.5465 68.7468 111.5305 16.3768"></polygon>
                <polygon id="Fill-28" fill="#231F20" points="115.4547 14.3077 115.4807 65.4457 116.0447 65.4457 116.0187 14.3077"></polygon>
                <polygon id="Fill-29" fill="#231F20" points="119.9547 12.2323 119.9777 62.1473 120.5427 62.1473 120.5187 12.2323"></polygon>
                <polygon id="Fill-30" fill="#231F20" points="124.4439 10.1632 124.4589 58.8592 125.0239 58.8592 125.0079 10.1632"></polygon>
                <polygon id="Fill-31" fill="#231F20" points="128.16 8.4487 128.177 56.1327 128.741 56.1327 128.726 8.4487"></polygon>
                <path d="M2.4577,96.9226 L2.4837,36.0776 L2.4837,35.7396 L2.8157,35.7996 L46.7677,43.7066 L46.9997,43.7486 L46.9997,43.9846 L46.9987,112.0566 L46.9977,112.4526 L46.6247,112.3236 L2.6477,97.1906 L2.4577,97.1246 L2.4577,96.9226 Z M3.0477,36.4146 L3.0217,96.7196 L46.4337,111.6596 L46.4357,44.2196 L3.0477,36.4146 Z" id="Fill-32" fill="#231F20"></path>
                <path d="M12.708,37.9165 L12.701,57.9735 L13.266,57.9735 L13.273,37.9165 L12.708,37.9165 Z M12.701,59.0595 L12.692,83.6475 L13.257,83.6475 L13.265,59.0595 L12.701,59.0595 Z" id="Fill-33" fill="#231F20"></path>
                <path d="M13.826,58.245 L14.392,58.245 L14.392,38.118 L13.826,38.118 L13.826,58.245 Z M13.827,59.413 L13.826,100.835 L14.39,100.835 L14.391,59.413 L13.827,59.413 Z" id="Fill-34" fill="#231F20"></path>
                <path d="M17.6634,38.8075 L17.6574,59.1605 L18.2224,59.1605 L18.2284,38.8075 L17.6634,38.8075 Z M17.6574,60.3305 L17.6444,102.1485 L18.2084,102.1485 L18.2224,60.3305 L17.6574,60.3305 Z" id="Fill-35" fill="#231F20"></path>
                <path d="M18.782,59.433 L19.349,59.433 L19.349,39.009 L18.782,39.009 L18.782,59.433 Z M18.783,60.6 L18.783,102.541 L19.347,102.541 L19.348,60.6 L18.783,60.6 Z" id="Fill-36" fill="#231F20"></path>
                <polygon id="Fill-37" fill="#231F20" points="22.4406 39.667 22.4326 103.797 22.9976 103.797 23.0046 39.667"></polygon>
                <path d="M26.4672,40.3915 L26.4602,61.2695 L27.0242,61.2695 L27.0322,40.3915 L26.4672,40.3915 Z M26.4602,62.4385 L26.4442,105.1775 L27.0082,105.1775 L27.0242,62.4385 L26.4602,62.4385 Z" id="Fill-38" fill="#231F20"></path>
                <path d="M27.584,61.541 L28.151,61.541 L28.151,40.592 L27.584,40.592 L27.584,61.541 Z M27.585,105.569 L28.149,105.569 L28.149,62.708 L27.585,62.708 L27.585,105.569 Z" id="Fill-39" fill="#231F20"></path>
                <path d="M31.4226,41.2834 L31.4166,62.4564 L31.9816,62.4564 L31.9876,41.2834 L31.4226,41.2834 Z M31.4166,63.5404 L31.4086,89.3194 L31.9726,89.3194 L31.9806,63.5404 L31.4166,63.5404 Z" id="Fill-40" fill="#231F20"></path>
                <path d="M32.54,62.73 L33.107,62.73 L33.107,41.486 L32.54,41.486 L32.54,62.73 Z M32.541,107.276 L33.106,107.276 L33.106,63.897 L32.541,63.897 L32.541,107.276 Z" id="Fill-41" fill="#231F20"></path>
                <path d="M5.4714,96.6755 L2.6484,95.7045 L2.4584,95.6385 L2.4584,95.4365 L2.4594,93.6785 L2.4594,93.2995 L2.8224,93.4075 L5.6444,94.2505 L5.8464,94.3105 L5.8464,94.5215 L5.8464,96.4075 L5.8454,96.8045 L5.4714,96.6755 Z M3.0234,95.2345 L5.2814,96.0105 L5.2814,94.7325 L3.0234,94.0585 L3.0234,95.2345 Z" id="Fill-42" fill="#231F20"></path>
                <path d="M5.4797,78.6057 L2.6567,77.6337 L2.4657,77.5687 L2.4657,77.3667 L2.4667,75.6087 L2.4667,75.2307 L2.8297,75.3377 L5.6527,76.1797 L5.8537,76.2407 L5.8537,76.4517 L5.8537,78.3377 L5.8537,78.7347 L5.4797,78.6057 Z M3.0307,77.1637 L5.2887,77.9407 L5.2897,76.6627 L3.0307,75.9887 L3.0307,77.1637 Z" id="Fill-43" fill="#231F20"></path>
                <path d="M5.5017,59.1311 L2.6787,58.3371 L2.4727,58.2791 L2.4727,58.0651 L2.4737,56.3071 L2.4737,55.9501 L2.8207,56.0311 L5.6437,56.6961 L5.8607,56.7481 L5.8607,56.9721 L5.8607,58.8591 L5.8607,59.2321 L5.5017,59.1311 Z M3.0377,57.8501 L5.2957,58.4851 L5.2967,57.1971 L3.0387,56.6651 L3.0377,57.8501 Z" id="Fill-44" fill="#231F20"></path>
                <path d="M5.5095,41.0613 L2.6865,40.2673 L2.4805,40.2083 L2.4815,39.9943 L2.4815,38.2373 L2.4815,37.8793 L2.8285,37.9613 L5.6515,38.6263 L5.8685,38.6783 L5.8685,38.9023 L5.8685,40.7893 L5.8675,41.1623 L5.5095,41.0613 Z M3.0455,39.7793 L5.3035,40.4153 L5.3045,39.1263 L3.0465,38.5943 L3.0455,39.7793 Z" id="Fill-45" fill="#231F20"></path>
                <path d="M46.6243,110.8977 L43.8013,109.9267 L43.6103,109.8607 L43.6113,109.6587 L43.6113,107.9007 L43.6113,107.5227 L43.9753,107.6297 L46.7973,108.4717 L46.9993,108.5327 L46.9993,108.7437 L46.9993,110.6297 L46.9983,111.0267 L46.6243,110.8977 Z M44.1753,109.4567 L46.4343,110.2327 L46.4343,108.9547 L44.1763,108.2807 L44.1753,109.4567 Z" id="Fill-46" fill="#231F20"></path>
                <path d="M46.6355,90.6399 L43.8125,89.7109 L43.6185,89.6469 L43.6185,89.4419 L43.6195,87.6849 L43.6195,87.3109 L43.9785,87.4119 L46.8015,88.2119 L47.0065,88.2709 L47.0065,88.4849 L47.0065,90.3709 L47.0065,90.7619 L46.6355,90.6399 Z M44.1835,89.2369 L46.4415,89.9799 L46.4425,88.6989 L44.1835,88.0589 L44.1835,89.2369 Z" id="Fill-47" fill="#231F20"></path>
                <path d="M46.6633,67.9485 L43.8403,67.2455 L43.6253,67.1925 L43.6253,66.9705 L43.6263,65.2135 L43.6263,64.8675 L43.9653,64.9365 L46.7883,65.5105 L47.0143,65.5565 L47.0143,65.7875 L47.0133,67.6735 L47.0133,68.0355 L46.6633,67.9485 Z M44.1903,66.7495 L46.4483,67.3115 L46.4493,66.0185 L44.1913,65.5595 L44.1903,66.7495 Z" id="Fill-48" fill="#231F20"></path>
                <path d="M46.6736,49.2351 L43.8506,48.5641 L43.6326,48.5121 L43.6336,48.2881 L43.6346,46.5311 L43.6346,46.1891 L43.9696,46.2531 L46.7926,46.7951 L47.0216,46.8391 L47.0216,47.0731 L47.0206,48.9591 L47.0206,49.3181 L46.6736,49.2351 Z M44.1976,48.0641 L46.4566,48.6011 L46.4566,47.3061 L44.1986,46.8731 L44.1976,48.0641 Z" id="Fill-49" fill="#231F20"></path>
                <path d="M34.1067,88.8142 L36.6637,89.5802 L36.8647,89.6412 L36.8647,89.8522 L36.8677,90.8032 L36.8677,91.1842 L36.5027,91.0732 L33.9437,90.2972 L34.1077,89.7562 L36.3017,90.4222 L36.3007,90.0632 L33.9447,89.3562 L34.1067,88.8142 Z M33.3847,90.1282 L32.7417,89.9342 L32.9057,89.3912 L33.5487,89.5862 L33.3847,90.1282 Z M32.9047,88.4542 L33.5477,88.6472 L33.3867,89.1892 L32.7427,88.9972 L32.9047,88.4542 Z M28.3777,88.6102 L27.7857,88.4302 L27.9487,87.8902 L28.5417,88.0702 L28.3777,88.6102 Z M31.6067,89.5892 L28.9367,88.7792 L29.1007,88.2392 L31.7707,89.0482 L31.6067,89.5892 Z M29.0997,87.3142 L31.7707,88.1142 L31.6087,88.6572 L28.9377,87.8562 L29.0997,87.3142 Z M27.9477,86.9692 L28.5407,87.1472 L28.3787,87.6892 L27.7867,87.5122 L27.9477,86.9692 Z M17.8487,85.4202 L17.3187,85.2602 L17.4827,84.7182 L18.0127,84.8782 L17.8487,85.4202 Z M17.4817,83.8352 L18.0117,83.9942 L17.8497,84.5362 L17.3197,84.3772 L17.4817,83.8352 Z M11.5647,83.5162 L8.6707,82.6392 L8.4687,82.5782 L8.4707,82.3672 L8.4767,81.5182 L8.4797,81.1402 L8.8397,81.2472 L11.7277,82.1122 L11.5657,82.6552 L9.0387,81.8982 L9.0367,82.1602 L11.7297,82.9762 L11.5647,83.5162 Z M12.8907,83.9182 L12.1247,83.6862 L12.2877,83.1442 L13.0547,83.3762 L12.8907,83.9182 Z M16.7607,85.0902 L14.0267,84.2612 L14.1897,83.7212 L16.9237,84.5502 L16.7607,85.0902 Z M14.1897,82.8492 L16.9227,83.6682 L16.7617,84.2102 L14.0277,83.3922 L14.1897,82.8492 Z M12.2867,82.2792 L13.0537,82.5092 L12.8917,83.0512 L12.1257,82.8222 L12.2867,82.2792 Z" id="Fill-50" fill="#231F20"></path>
                <polygon id="Fill-51" fill="#231F20" points="11.3635 84.5642 11.3635 81.2512 11.3635 80.9012 11.7055 80.9742 12.2645 81.0942 12.4895 81.1422 12.4895 81.3712 12.4895 84.7242 12.4895 85.0992 12.1285 84.9962 11.5695 84.8362 11.3635 84.7782"></polygon>
                <polygon id="Fill-52" fill="#231F20" points="16.5588 86.1614 16.5588 82.8484 16.5588 82.4984 16.9008 82.5714 17.4598 82.6914 17.6838 82.7394 17.6838 82.9684 17.6838 86.3214 17.6838 86.6964 17.3238 86.5934 16.7648 86.4334 16.5588 86.3754"></polygon>
                <polygon id="Fill-53" fill="#231F20" points="28.176 89.4646 28.176 86.1516 28.176 85.8016 28.518 85.8746 29.077 85.9946 29.302 86.0436 29.302 86.2716 29.302 89.6246 29.302 89.9996 28.941 89.8966 28.382 89.7366 28.176 89.6776"></polygon>
                <polygon id="Fill-54" fill="#231F20" points="33.1838 91.0212 33.1838 87.7082 33.1838 87.3582 33.5258 87.4312 34.0848 87.5512 34.3088 87.5992 34.3088 87.8282 34.3088 91.1812 34.3088 91.5562 33.9488 91.4532 33.3898 91.2932 33.1838 91.2352"></polygon>
                <path d="M12.1628,101.9548 L12.1558,100.2608 L12.1538,99.8628 L12.5298,99.9918 L14.6188,100.7108 L14.8098,100.7768 L14.8088,100.9788 L14.8038,102.7918 L14.8018,103.2108 L14.4158,103.0548 L12.3398,102.2158 L12.1638,102.1448 L12.1628,101.9548 Z M12.7218,100.6568 L12.7268,101.7628 L14.2398,102.3738 L14.2438,101.1808 L12.7218,100.6568 Z" id="Fill-55" fill="#231F20"></path>
                <path d="M17.1579,103.6736 L17.1509,101.9796 L17.1489,101.5816 L17.5249,101.7106 L19.6139,102.4296 L19.8039,102.4956 L19.8039,102.6976 L19.7979,104.5106 L19.7969,104.9296 L19.4109,104.7736 L17.3349,103.9356 L17.1579,103.8636 L17.1579,103.6736 Z M17.7169,102.3756 L17.7219,103.4816 L19.2349,104.0926 L19.2389,102.8996 L17.7169,102.3756 Z" id="Fill-56" fill="#231F20"></path>
                <path d="M25.907,106.6848 L25.9,104.9908 L25.898,104.5918 L26.274,104.7218 L28.363,105.4408 L28.553,105.5068 L28.553,105.7078 L28.547,107.5218 L28.546,107.9398 L28.16,107.7838 L26.084,106.9458 L25.908,106.8748 L25.907,106.6848 Z M26.466,105.3868 L26.471,106.4928 L27.984,107.1028 L27.988,105.9108 L26.466,105.3868 Z" id="Fill-57" fill="#231F20"></path>
                <path d="M30.9426,108.4177 L30.9356,106.7237 L30.9336,106.3257 L31.3096,106.4547 L33.3986,107.1737 L33.5896,107.2397 L33.5886,107.4407 L33.5836,109.2547 L33.5816,109.6727 L33.1956,109.5167 L31.1196,108.6787 L30.9436,108.6077 L30.9426,108.4177 Z M31.5016,107.1197 L31.5066,108.2247 L33.0196,108.8357 L33.0236,107.6437 L31.5016,107.1197 Z" id="Fill-58" fill="#231F20"></path>
                <path d="M12.9441,37.0246 L12.9441,37.6216 L14.1391,37.8366 L14.1391,37.2426 L12.9441,37.0246 Z M12.3791,37.8576 L12.3801,36.6866 L12.3801,36.3476 L12.7121,36.4086 L14.4721,36.7296 L14.7041,36.7716 L14.7041,37.0066 L14.7031,38.1736 L14.7031,38.5116 L14.3711,38.4516 L12.6111,38.1346 L12.3781,38.0936 L12.3791,37.8576 Z" id="Fill-59" fill="#231F20"></path>
                <path d="M17.8982,37.9158 L17.8972,38.5128 L19.0932,38.7278 L19.0932,38.1338 L17.8982,37.9158 Z M17.3322,38.7488 L17.3342,37.5778 L17.3342,37.2388 L17.6662,37.2998 L19.4252,37.6208 L19.6582,37.6638 L19.6582,37.8978 L19.6572,39.0648 L19.6572,39.4028 L19.3252,39.3428 L17.5652,39.0258 L17.3322,38.9848 L17.3322,38.7488 Z" id="Fill-60" fill="#231F20"></path>
                <path d="M26.6755,39.4944 L26.6745,40.0914 L27.8695,40.3064 L27.8705,39.7124 L26.6755,39.4944 Z M26.1095,40.3274 L26.1115,39.1564 L26.1115,38.8184 L26.4435,38.8784 L28.2025,39.1994 L28.4345,39.2424 L28.4345,39.4774 L28.4345,40.6444 L28.4345,40.9824 L28.1025,40.9224 L26.3425,40.6054 L26.1095,40.5634 L26.1095,40.3274 Z" id="Fill-61" fill="#231F20"></path>
                <path d="M31.6433,40.3884 L31.6423,40.9854 L32.8383,41.2004 L32.8383,40.6064 L31.6433,40.3884 Z M31.0773,41.2214 L31.0793,40.0504 L31.0793,39.7114 L31.4113,39.7724 L33.1703,40.0934 L33.4033,40.1364 L33.4033,40.3704 L33.4023,41.5374 L33.4023,41.8754 L33.0703,41.8154 L31.3103,41.4984 L31.0773,41.4574 L31.0773,41.2214 Z" id="Fill-62" fill="#231F20"></path>
                <path d="M12.9035,58.2439 L12.9035,58.8329 L14.0985,59.1199 L14.0985,58.5339 L12.9035,58.2439 Z M12.3385,59.0559 L12.3395,57.8849 L12.3395,57.5259 L12.6885,57.6109 L14.4475,58.0359 L14.6635,58.0889 L14.6635,58.3109 L14.6625,59.4779 L14.6625,59.8359 L14.3155,59.7529 L12.5545,59.3309 L12.3375,59.2789 L12.3385,59.0559 Z" id="Fill-63" fill="#231F20"></path>
                <path d="M17.8572,59.4309 L17.8572,60.0199 L19.0522,60.3059 L19.0522,59.7199 L17.8572,59.4309 Z M17.2922,60.2429 L17.2932,59.0719 L17.2942,58.7129 L17.6422,58.7969 L19.4012,59.2229 L19.6172,59.2759 L19.6172,59.4979 L19.6172,60.6639 L19.6162,61.0229 L19.2692,60.9389 L17.5092,60.5169 L17.2912,60.4659 L17.2922,60.2429 Z" id="Fill-64" fill="#231F20"></path>
                <path d="M26.6345,61.5339 L26.6345,62.1229 L27.8295,62.4089 L27.8295,61.8229 L26.6345,61.5339 Z M26.0695,62.3459 L26.0705,61.1749 L26.0705,60.8159 L26.4195,60.8999 L28.1785,61.3259 L28.3945,61.3789 L28.3945,61.6009 L28.3935,62.7679 L28.3935,63.1259 L28.0465,63.0419 L26.2855,62.6199 L26.0685,62.5689 L26.0695,62.3459 Z" id="Fill-65" fill="#231F20"></path>
                <path d="M31.6023,62.7239 L31.6023,63.3129 L32.7973,63.5999 L32.7973,63.0139 L31.6023,62.7239 Z M31.0373,63.5359 L31.0383,62.3649 L31.0383,62.0059 L31.3873,62.0909 L33.1463,62.5159 L33.3623,62.5689 L33.3623,62.7909 L33.3623,63.9579 L33.3613,64.3159 L33.0143,64.2329 L31.2533,63.8109 L31.0363,63.7589 L31.0373,63.5359 Z" id="Fill-66" fill="#231F20"></path>
                <polygon id="Fill-67" fill="#231F20" points="31.4064 89.3191 31.3994 106.8821 31.9634 106.8821 31.9714 89.3191"></polygon>
                <path d="M127.3918,4.9187 L50.9278,38.1357 L50.8518,38.1687 L50.7708,38.1557 L7.0868,31.1367 L5.9478,30.9547 L7.0428,30.5897 L96.5678,0.8417 L96.6288,0.8217 L96.6888,0.8287 L127.3108,4.3787 L128.3568,4.4997 L127.3918,4.9187 Z M50.7778,37.5847 L126.2028,4.8197 L96.6838,1.3977 L8.3138,30.7617 L50.7778,37.5847 Z" id="Fill-68" fill="#231F20"></path>
                <polygon id="Fill-69" fill="#231F20" points="14.3342 28.198 57.3562 34.773 57.2722 35.333 14.2502 28.758"></polygon>
                <polygon id="Fill-70" fill="#231F20" points="21.051 25.9656 63.402 32.1466 63.322 32.7066 20.971 26.5256"></polygon>
                <polygon id="Fill-71" fill="#231F20" points="27.2873 23.8928 69.1773 29.6358 69.1013 30.1958 27.2113 24.4528"></polygon>
                <polygon id="Fill-72" fill="#231F20" points="33.7141 21.7546 75.4141 26.9236 75.3451 27.4866 33.6451 22.3166"></polygon>
                <polygon id="Fill-73" fill="#231F20" points="40.3826 19.5383 81.3246 24.3553 81.2596 24.9183 40.3186 20.1003"></polygon>
                <polygon id="Fill-74" fill="#231F20" points="46.6189 17.4656 87.2349 21.7876 87.1749 22.3496 46.5589 18.0276"></polygon>
                <polygon id="Fill-75" fill="#231F20" points="53.0002 15.3445 92.5202 19.4905 92.4622 20.0525 52.9422 15.9065"></polygon>
                <polygon id="Fill-76" fill="#231F20" points="58.613 13.4787 97.67 17.2527 97.616 17.8147 58.56 14.0407"></polygon>
                <polygon id="Fill-77" fill="#231F20" points="64.5154 11.5173 102.5994 15.1113 102.5474 15.6733 64.4624 12.0793"></polygon>
                <polygon id="Fill-78" fill="#231F20" points="70.4651 9.5403 107.5281 12.9693 107.4781 13.5313 70.4141 10.1023"></polygon>
                <polygon id="Fill-79" fill="#231F20" points="76.2229 7.6267 112.3249 10.8857 112.2739 11.4487 76.1719 8.1887"></polygon>
                <polygon id="Fill-80" fill="#231F20" points="82.466 5.5539 116.305 9.1579 116.245 9.7209 82.406 6.1159"></polygon>
                <polygon id="Fill-81" fill="#231F20" points="123.4944 6.5705 92.2774 2.8355 92.3434 2.2725 123.5604 6.0085"></polygon>
                <polygon id="Fill-82" fill="#231F20" points="87.7961 3.7839 120.1111 7.5059 120.0471 8.0679 87.7321 4.3459"></polygon>
            </g>
        </g>
    </g>
</svg>