<?xml version="1.0" encoding="UTF-8"?>
<svg width="132px" height="100px" viewBox="0 0 132 100" version="1.1" xmlns="http://www.w3.org/2000/svg" xmlns:xlink="http://www.w3.org/1999/xlink">
    <!-- Generator: sketchtool 50.1 (55044) - http://www.bohemiancoding.com/sketch -->
    <title>551C2B23-3BDE-4026-B4C3-B85B8F40BBA1</title>
    <desc>Created with sketchtool.</desc>
    <defs></defs>
    <g id="Tools" stroke="none" stroke-width="1" fill="none" fill-rule="evenodd">
        <g id="Tools---Container-Types" transform="translate(-594.000000, -2329.000000)">
            <g id="containers6" transform="translate(594.000000, 2329.000000)">
                <polygon id="Fill-1" fill="#FEFEFE" points="0 37.0181159 0 86.6797101 36.7467692 99.7934783 131.346527 28.5021739 131.350154 1.17318841 112.758462 0.0115942029"></polygon>
                <path d="M0,37.0181159 L0,37.1717391 L0,86.5362319 L0,86.6797101 L0.136351648,86.7289855 L36.5545714,99.8231884 L36.6604615,99.8615942 L36.8287253,99.7333333 L36.4958242,43.2 L36.4943736,43.0275362 L36.3239341,42.9985507 L0.189296703,36.9623188 L0,37.0181159 Z M0.411230769,86.3927536 L0.411230769,37.4144928 L36.0867692,43.373913 L36.4167692,99.3391304 L0.411230769,86.3927536 Z" id="Fill-2" fill="#231F20"></path>
                <polygon id="Fill-3" fill="#231F20" points="112.795378 7.24637681e-05 112.759114 0.0116666667 0.142081319 36.9776087 0.269004396 37.3667391 112.849048 0.414565217 130.295532 1.51746377 36.2078176 43.0131159 36.3731802 43.3884783 131.351532 1.50007246 131.350081 1.17326087 131.160059 1.16094203 112.835268 0.00297101449"></polygon>
                <polygon id="Fill-4" fill="#231F20" points="130.942404 1.36572464 130.937327 28.2968841 36.5000308 99.4671739 36.7473495 99.7939855 131.265152 28.5635507 131.346382 28.5019565 131.346382 28.399058 131.351459 1.36572464"></polygon>
                <polygon id="Fill-5" fill="#231F20" points="1.80223516 37.4733333 1.7812022 87.1769565 2.19098242 87.1769565 2.21129011 37.4733333"></polygon>
                <polygon id="Fill-6" fill="#231F20" points="36.2816505 46.1576812 0.242024176 39.6794203 0.168771429 40.0830435 36.2729473 46.5721739 36.3367714 46.5837681 36.396244 46.5569565 131.233167 2.87 131.061277 2.49826087"></polygon>
                <polygon id="Fill-7" fill="#231F20" points="33.6784945 42.7983333 33.6763187 98.6447101 34.0860989 98.6447101 34.0875495 42.7983333"></polygon>
                <polygon id="Fill-8" fill="#231F20" points="36.5688593 95.9687681 0.272485714 83.489058 0.139035165 83.8774638 36.536222 96.3912319 36.6377604 96.4267391 36.7247934 96.362971 131.263629 27.0680435 131.021387 26.7368841"></polygon>
                <polygon id="Fill-9" fill="#231F20" points="111.583879 0.813985507 129.962341 1.9907971 129.910121 29.1734058 130.319176 29.1734058 130.372846 1.79731884 130.372846 1.60601449 130.180648 1.59369565 111.609264 0.405289855"></polygon>
                <polygon id="Fill-10" fill="#231F20" points="33.8011385 42.6106522 129.489534 1.07876812 129.653446 1.45413043 33.9650505 42.9860145"></polygon>
                <polygon id="Fill-11" fill="#231F20" points="1.94257582 37.2789855 2.07094945 37.6666667 114.090356 0.477536232 113.961982 0.0891304348"></polygon>
                <polygon id="Fill-12" fill="#231F20" points="3.40262637 35.931087 39.2863187 41.6919565 39.4589341 41.7194928 39.4589341 41.8941304 39.4110659 97.6839855 39.0012857 97.6839855 39.0484286 42.0680435 3.3388022 36.3354348"></polygon>
                <polygon id="Fill-13" fill="#231F20" points="94.3282879 54.1407971 39.3299802 94.4523913 39.0036066 94.6922464 39.0043319 94.2871739 39.0463978 45.0154348 39.0463978 44.8835507 39.1653429 44.8292029 94.0555846 19.5444203 94.2267495 19.9168841 39.4554527 45.1465942 39.4141121 93.8828261 94.0860462 53.8096377"></polygon>
                <polygon id="Fill-14" fill="#231F20" points="65.5521429 32.8057246 65.5361868 74.8405072 65.945967 74.8405072 65.9619231 32.8057246"></polygon>
                <polygon id="Fill-15" fill="#231F20" points="52.5376681 38.8005072 52.5666791 84.3468841 52.9757341 84.3468841 52.9474484 38.8005072"></polygon>
                <polygon id="Fill-16" fill="#231F20" points="78.5111341 26.8357246 78.5872879 65.2741304 78.9970681 65.2741304 78.9209143 26.8357246"></polygon>
                <polygon id="Fill-17" fill="#231F20" points="46.0082374 41.8083333 46.0372484 89.132971 46.4470286 89.132971 46.4172923 41.8083333"></polygon>
                <polygon id="Fill-18" fill="#231F20" points="49.2726264 40.3044203 49.3023626 86.7392029 49.7121429 86.7392029 49.6816813 40.3044203"></polygon>
                <polygon id="Fill-19" fill="#231F20" points="42.7699582 43.2998551 42.7779363 91.5223188 43.1869912 91.5223188 43.1790132 43.2998551"></polygon>
                <polygon id="Fill-20" fill="#231F20" points="55.8000989 37.2978986 55.8153297 81.9652899 56.2251099 81.9652899 56.2091538 37.2978986"></polygon>
                <polygon id="Fill-21" fill="#231F20" points="59.0468637 35.8024638 59.0628198 79.5857971 59.4726 79.5857971 59.4559187 35.8024638"></polygon>
                <polygon id="Fill-22" fill="#231F20" points="62.2929758 34.3063768 62.3060308 77.2085507 62.7150857 77.2085507 62.702756 34.3063768"></polygon>
                <polygon id="Fill-23" fill="#231F20" points="68.8041297 31.307029 68.783822 72.4599275 69.1928769 72.4599275 69.2131846 31.307029"></polygon>
                <polygon id="Fill-24" fill="#231F20" points="72.0378396 29.8174638 72.0342132 70.0776087 72.4439934 70.0776087 72.4476198 29.8174638"></polygon>
                <polygon id="Fill-25" fill="#231F20" points="75.2682857 28.3298551 75.2653846 67.7088406 75.6751648 67.7088406 75.6780659 28.3298551"></polygon>
                <polygon id="Fill-26" fill="#231F20" points="81.8231736 25.3102899 81.8405802 62.89 82.2503604 62.89 82.2322286 25.3102899"></polygon>
                <polygon id="Fill-27" fill="#231F20" points="85.0751604 23.8122464 85.1048967 60.497029 85.5146769 60.497029 85.4842154 23.8122464"></polygon>
                <polygon id="Fill-28" fill="#231F20" points="88.3388967 22.3089855 88.3642813 58.1075362 88.7740615 58.1075362 88.7486769 22.3089855"></polygon>
                <polygon id="Fill-29" fill="#231F20" points="91.597411 20.8083333 91.6148176 55.725 92.0245978 55.725 92.0064659 20.8083333"></polygon>
                <polygon id="Fill-30" fill="#231F20" points="64.2022615 33.4272464 64.1921077 75.8257971 64.6011626 75.8257971 64.6120418 33.4272464"></polygon>
                <polygon id="Fill-31" fill="#231F20" points="51.1936615 39.4194203 51.2117934 85.3397101 51.6215736 85.3397101 51.6034418 39.4194203"></polygon>
                <polygon id="Fill-32" fill="#231F20" points="77.1821407 27.4481159 77.2314593 66.2676812 77.6412396 66.2676812 77.5911956 27.4481159"></polygon>
                <polygon id="Fill-33" fill="#231F20" points="44.663578 42.4278986 44.6817099 90.1257246 45.0907648 90.1257246 45.072633 42.4278986"></polygon>
                <polygon id="Fill-34" fill="#231F20" points="47.927967 40.9239855 47.9468242 87.7334058 48.3566044 87.7334058 48.337022 40.9239855"></polygon>
                <polygon id="Fill-35" fill="#231F20" points="41.4233407 43.9200725 41.4276923 92.5106522 41.8381978 92.5106522 41.8323956 43.9200725"></polygon>
                <polygon id="Fill-36" fill="#231F20" points="54.4547868 37.9174638 54.4649407 82.9558696 54.8739956 82.9558696 54.8638418 37.9174638"></polygon>
                <polygon id="Fill-37" fill="#231F20" points="57.7008989 36.422029 57.7110527 80.5756522 58.1215582 80.5756522 58.1106791 36.422029"></polygon>
                <polygon id="Fill-38" fill="#231F20" points="60.9476637 34.9265942 60.9556418 78.1976087 61.365422 78.1976087 61.3567187 34.9265942"></polygon>
                <polygon id="Fill-39" fill="#231F20" points="67.4529429 31.9298551 67.4398879 73.4443478 67.8489429 73.4443478 67.8619978 31.9298551"></polygon>
                <polygon id="Fill-40" fill="#231F20" points="70.6899165 30.4389855 70.6877407 71.0643478 71.0975209 71.0643478 71.0996967 30.4389855"></polygon>
                <polygon id="Fill-41" fill="#231F20" points="73.9203626 28.9507246 73.9181868 68.6963768 74.327967 68.6963768 74.3294176 28.9507246"></polygon>
                <polygon id="Fill-42" fill="#231F20" points="80.4804725 25.9285507 80.4913516 63.8778261 80.9011319 63.8778261 80.8902527 25.9285507"></polygon>
                <polygon id="Fill-43" fill="#231F20" points="83.7357231 24.4292029 83.7553055 61.4864493 84.1643604 61.4864493 84.1455033 24.4292029"></polygon>
                <polygon id="Fill-44" fill="#231F20" points="86.9994593 22.925942 87.0161407 59.0955072 87.4259209 59.0955072 87.4092396 22.925942"></polygon>
                <polygon id="Fill-45" fill="#231F20" points="90.2553626 21.4265942 90.266967 56.7128261 90.676022 56.7128261 90.6651429 21.4265942"></polygon>
                <polygon id="Fill-46" fill="#231F20" points="66.8974549 32.1861594 66.8873011 73.8506522 67.2970813 73.8506522 67.3072352 32.1861594"></polygon>
                <polygon id="Fill-47" fill="#231F20" points="53.8901604 38.1776812 53.907567 83.3631884 54.3180725 83.3631884 54.2992154 38.1776812"></polygon>
                <polygon id="Fill-48" fill="#231F20" points="79.8799451 26.2057246 79.9292637 64.2905072 80.3383187 64.2905072 80.2897253 26.2057246"></polygon>
                <polygon id="Fill-49" fill="#231F20" points="47.3594242 41.1855072 47.3782813 88.15 47.7873363 88.15 47.7692044 41.1855072"></polygon>
                <polygon id="Fill-50" fill="#231F20" points="50.6244659 39.6815942 50.6433231 85.7562319 51.0531033 85.7562319 51.0335209 39.6815942"></polygon>
                <polygon id="Fill-51" fill="#231F20" points="44.1191868 42.6783333 44.1235385 90.5348551 44.5333187 90.5348551 44.5282418 42.6783333"></polygon>
                <polygon id="Fill-52" fill="#231F20" points="57.150633 36.6757246 57.1607868 80.9800725 57.5698418 80.9800725 57.5604132 36.6757246"></polygon>
                <polygon id="Fill-53" fill="#231F20" points="60.3973978 35.1796377 60.4075516 78.5992029 60.8173319 78.5992029 60.807178 35.1796377"></polygon>
                <polygon id="Fill-54" fill="#231F20" points="63.6435099 33.6848551 63.6522132 76.2218116 64.0612681 76.2218116 64.0532901 33.6848551"></polygon>
                <polygon id="Fill-55" fill="#231F20" points="70.1481363 30.6881159 70.1350813 71.4692754 70.5448615 71.4692754 70.5579165 30.6881159"></polygon>
                <polygon id="Fill-56" fill="#231F20" points="73.3857626 29.1972464 73.3835868 69.0885507 73.793367 69.0885507 73.7955429 29.1972464"></polygon>
                <polygon id="Fill-57" fill="#231F20" points="76.615556 27.7089855 76.6141055 66.7205797 77.0231604 66.7205797 77.0253363 27.7089855"></polygon>
                <polygon id="Fill-58" fill="#231F20" points="83.1763187 24.6874638 83.1871978 61.9026812 83.596978 61.9026812 83.5853736 24.6874638"></polygon>
                <polygon id="Fill-59" fill="#231F20" points="86.432222 23.1868116 86.4510791 59.51 86.8608593 59.51 86.8412769 23.1868116"></polygon>
                <polygon id="Fill-60" fill="#231F20" points="89.6959582 21.6842029 89.7119143 57.1197101 90.1216945 57.1197101 90.1050132 21.6842029"></polygon>
                <polygon id="Fill-61" fill="#231F20" points="92.9518615 20.1842029 92.9627407 54.7378261 93.3725209 54.7378261 93.3609165 20.1842029"></polygon>
                <polygon id="Fill-62" fill="#231F20" points="40.7594967 44.225942 40.7805297 92.986087 41.1895846 92.986087 41.1685516 44.225942"></polygon>
                <polygon id="Fill-63" fill="#231F20" points="93.4916835 19.9350725 93.4626725 54.3713043 93.8717275 54.3713043 93.9007385 19.9350725"></polygon>
                <polygon id="Fill-64" fill="#231F20" points="119.693611 7.86528986 119.682732 35.1522464 120.092512 35.1522464 120.102666 7.86528986"></polygon>
                <polygon id="Fill-65" fill="#231F20" points="106.829268 13.7915942 106.8474 44.5597101 107.25718 44.5597101 107.238323 13.7915942"></polygon>
                <polygon id="Fill-66" fill="#231F20" points="100.374251 16.7648551 100.393833 49.290942 100.802888 49.290942 100.783305 16.7648551"></polygon>
                <polygon id="Fill-67" fill="#231F20" points="103.60078 15.2785507 103.621088 46.9249275 104.030143 46.9249275 104.01056 15.2785507"></polygon>
                <polygon id="Fill-68" fill="#231F20" points="97.1725253 18.2400725 97.1776022 51.6473188 97.5873824 51.6473188 97.5815802 18.2400725"></polygon>
                <polygon id="Fill-69" fill="#231F20" points="110.053187 12.3065942 110.063341 42.202971 110.473121 42.202971 110.462967 12.3065942"></polygon>
                <polygon id="Fill-70" fill="#231F20" points="113.262745 10.8281159 113.272899 39.8498551 113.682679 39.8498551 113.6718 10.8281159"></polygon>
                <polygon id="Fill-71" fill="#231F20" points="116.471651 9.34963768 116.480354 37.5003623 116.889409 37.5003623 116.880705 9.34963768"></polygon>
                <polygon id="Fill-72" fill="#231F20" points="122.907086 6.38485507 122.894756 32.7978986 123.303811 32.7978986 123.316866 6.38485507"></polygon>
                <polygon id="Fill-73" fill="#231F20" points="126.104242 4.91224638 126.102066 30.447029 126.511846 30.447029 126.514022 4.91224638"></polygon>
                <polygon id="Fill-74" fill="#231F20" points="129.297481 3.4415942 129.296031 28.106087 129.705086 28.106087 129.706536 3.4415942"></polygon>
                <polygon id="Fill-75" fill="#231F20" points="118.358743 8.48028986 118.35149 36.1281159 118.76127 36.1281159 118.767798 8.48028986"></polygon>
                <polygon id="Fill-76" fill="#231F20" points="105.500275 14.4033333 105.511879 45.5388406 105.921659 45.5388406 105.90933 14.4033333"></polygon>
                <polygon id="Fill-77" fill="#231F20" points="99.0446044 17.3772464 99.0569341 50.2692754 99.4667143 50.2692754 99.4536593 17.3772464"></polygon>
                <polygon id="Fill-78" fill="#231F20" points="102.271787 15.890942 102.284116 47.9039855 102.693897 47.9039855 102.680842 15.890942"></polygon>
                <polygon id="Fill-79" fill="#231F20" points="95.8415736 18.8531159 95.8444747 52.6248551 96.2542549 52.6248551 96.2506286 18.8531159"></polygon>
                <polygon id="Fill-80" fill="#231F20" points="108.723541 12.9189855 108.729343 43.1805797 109.139123 43.1805797 109.132596 12.9189855"></polygon>
                <polygon id="Fill-81" fill="#231F20" points="111.932446 11.4405072 111.938974 40.8274638 112.348754 40.8274638 112.342226 11.4405072"></polygon>
                <polygon id="Fill-82" fill="#231F20" points="115.142004 9.96202899 115.146356 38.4765217 115.556136 38.4765217 115.551059 9.96202899"></polygon>
                <polygon id="Fill-83" fill="#231F20" points="121.572218 7.00050725 121.563514 33.7736957 121.973295 33.7736957 121.981273 7.00050725"></polygon>
                <polygon id="Fill-84" fill="#231F20" points="124.771985 5.5265942 124.770534 31.422971 125.179589 31.422971 125.18104 5.5265942"></polygon>
                <polygon id="Fill-85" fill="#231F20" points="127.965224 4.05528986 127.963774 29.0821014 128.373554 29.0821014 128.374279 4.05528986"></polygon>
                <polygon id="Fill-86" fill="#231F20" points="121.023257 7.25289855 121.016004 34.1746377 121.425785 34.1746377 121.432312 7.25289855"></polygon>
                <polygon id="Fill-87" fill="#231F20" points="108.165442 13.175942 108.177046 43.5853623 108.586826 43.5853623 108.574497 13.175942"></polygon>
                <polygon id="Fill-88" fill="#231F20" points="101.709771 16.1498551 101.722101 48.3165217 102.131156 48.3165217 102.118826 16.1498551"></polygon>
                <polygon id="Fill-89" fill="#231F20" points="104.936954 14.6628986 104.950009 45.9513043 105.359064 45.9513043 105.346734 14.6628986"></polygon>
                <polygon id="Fill-90" fill="#231F20" points="98.5067407 17.6257246 98.5096418 50.6713768 98.919422 50.6713768 98.9157956 17.6257246"></polygon>
                <polygon id="Fill-91" fill="#231F20" points="111.388055 11.6915942 111.394582 41.2263768 111.803637 41.2263768 111.79711 11.6915942"></polygon>
                <polygon id="Fill-92" fill="#231F20" points="114.597613 10.2131159 114.604141 38.8747101 115.013921 38.8747101 115.006668 10.2131159"></polygon>
                <polygon id="Fill-93" fill="#231F20" points="117.807171 8.73463768 117.811523 36.5230435 118.221303 36.5230435 118.216226 8.73463768"></polygon>
                <polygon id="Fill-94" fill="#231F20" points="124.236079 5.77311594 124.228101 31.8202174 124.637156 31.8202174 124.645859 5.77311594"></polygon>
                <polygon id="Fill-95" fill="#231F20" points="127.436499 4.29855072 127.435048 29.4695652 127.844103 29.4695652 127.845554 4.29855072"></polygon>
                <polygon id="Fill-96" fill="#231F20" points="95.1855626 19.1550725 95.2000681 53.0971014 95.6091231 53.0971014 95.5953429 19.1550725"></polygon>
                <path d="M129.959512,3.45652174 L39.4553802,45.1463768 L39.4140396,93.8826087 L129.913095,27.55 L129.959512,3.45652174 Z M39.1652703,44.8289855 L130.079182,2.95 L130.370018,2.81594203 L130.369292,3.13623188 L130.322149,27.6543478 L130.322149,27.7586957 L130.238743,27.8195652 L39.330633,94.4528986 L39.0035341,94.692029 L39.0042593,94.2876812 L39.0463253,45.0152174 L39.0463253,44.8833333 L39.1652703,44.8289855 Z" id="Fill-97" fill="#231F20"></path>
                <path d="M1.78243516,84.2953623 L1.80129231,40.2047826 L1.80129231,39.9598551 L2.04208352,40.0033333 L33.9193582,45.7330435 L34.087622,45.7634783 L34.087622,45.9344928 L34.0868967,95.262029 L34.0861714,95.5497101 L33.8149187,95.4562319 L1.92023736,84.4895652 L1.78243516,84.4424638 L1.78243516,84.2953623 Z M2.21034725,40.4497101 L2.19149011,84.1489855 L33.6771165,94.9743478 L33.678567,46.1055072 L2.21034725,40.4497101 Z" id="Fill-98" fill="#231F20"></path>
                <path d="M9.21679121,41.5376812 L9.21171429,56.0710145 L9.62076923,56.0710145 L9.62584615,41.5376812 L9.21679121,41.5376812 Z M9.21098901,56.8586957 L9.20518681,74.6753623 L9.61424176,74.6753623 L9.62076923,56.8586957 L9.21098901,56.8586957 Z" id="Fill-99" fill="#231F20"></path>
                <path d="M10.0269231,56.2681159 L10.4381538,56.2681159 L10.4381538,41.6826087 L10.0269231,41.6826087 L10.0269231,56.2681159 Z M10.0283736,57.1144928 L10.0269231,87.1304348 L10.4367033,87.1304348 L10.4374286,57.1144928 L10.0283736,57.1144928 Z" id="Fill-100" fill="#231F20"></path>
                <path d="M12.8108176,42.1833333 L12.8064659,56.9318841 L13.2155209,56.9318841 L13.2198725,42.1833333 L12.8108176,42.1833333 Z M12.8064659,57.7797101 L12.7963121,88.0826087 L13.2060923,88.0826087 L13.2155209,57.7797101 L12.8064659,57.7797101 Z" id="Fill-101" fill="#231F20"></path>
                <path d="M13.6213846,57.1289855 L14.0333407,57.1289855 L14.0333407,42.3289855 L13.6213846,42.3289855 L13.6213846,57.1289855 Z M13.6228352,57.9753623 L13.6221099,88.3666667 L14.0311648,88.3666667 L14.0318901,57.9753623 L13.6228352,57.9753623 Z" id="Fill-102" fill="#231F20"></path>
                <polygon id="Fill-103" fill="#231F20" points="16.2756 42.8061594 16.2697978 89.2771739 16.6788527 89.2771739 16.6846549 42.8061594"></polygon>
                <path d="M19.1959912,43.3311594 L19.1909143,58.4594203 L19.5999692,58.4594203 L19.6050462,43.3311594 L19.1959912,43.3311594 Z M19.190189,59.3072464 L19.1793099,90.2768116 L19.5883648,90.2768116 L19.5999692,59.3072464 L19.190189,59.3072464 Z" id="Fill-104" fill="#231F20"></path>
                <path d="M20.0052527,58.6572464 L20.4164835,58.6572464 L20.4164835,43.4768116 L20.0052527,43.4768116 L20.0052527,58.6572464 Z M20.0067033,59.5028986 L20.005978,90.5615942 L20.4157582,90.5615942 L20.4157582,59.5028986 L20.0067033,59.5028986 Z" id="Fill-105" fill="#231F20"></path>
                <path d="M22.7900176,43.9768116 L22.7856659,59.3195652 L23.1954462,59.3195652 L23.1990725,43.9768116 L22.7900176,43.9768116 Z M22.7856659,60.1050725 L22.7798637,78.7855072 L23.1889187,78.7855072 L23.1947209,60.1050725 L22.7856659,60.1050725 Z" id="Fill-106" fill="#231F20"></path>
                <path d="M23.6004396,59.5173913 L24.0116703,59.5173913 L24.0116703,44.1231884 L23.6004396,44.1231884 L23.6004396,59.5173913 Z M23.6011648,60.3630435 L23.6011648,91.7978261 L24.0109451,91.7978261 L24.0116703,60.3630435 L23.6011648,60.3630435 Z" id="Fill-107" fill="#231F20"></path>
                <path d="M3.9681956,84.1163043 L1.92074505,83.4126812 L1.78221758,83.3648551 L1.78294286,83.2184783 L1.78294286,81.9452899 L1.78294286,81.6706522 L2.04694286,81.7481884 L4.09366813,82.359058 L4.24017363,82.4025362 L4.24017363,82.5554348 L4.23944835,83.9221014 L4.23944835,84.2097826 L3.9681956,84.1163043 Z M2.1919978,83.0721014 L3.83039341,83.6344203 L3.83039341,82.7083333 L2.19272308,82.2199275 L2.1919978,83.0721014 Z" id="Fill-108" fill="#231F20"></path>
                <path d="M3.97385275,71.0222464 L1.9264022,70.3186232 L1.78787473,70.2707971 L1.7886,70.1244203 L1.7886,68.8512319 L1.7886,68.5758696 L2.0526,68.6541304 L4.09932527,69.265 L4.24583077,69.3084783 L4.24583077,69.4613768 L4.24510549,70.8280435 L4.24510549,71.1157246 L3.97385275,71.0222464 Z M2.19765495,69.9780435 L3.83532527,70.541087 L3.83605055,69.6142754 L2.19838022,69.1258696 L2.19765495,69.9780435 Z" id="Fill-109" fill="#231F20"></path>
                <path d="M3.98980879,56.9105797 L1.94235824,56.3352174 L1.79295165,56.2931884 L1.79367692,56.1373913 L1.7944022,54.8642029 L1.7944022,54.6055072 L2.04534725,54.6642029 L4.0927978,55.146087 L4.25018242,55.1837681 L4.25018242,55.346087 L4.25018242,56.7134783 L4.25018242,56.9837681 L3.98980879,56.9105797 Z M2.20273187,55.9823188 L3.8404022,56.4424638 L3.84112747,55.5084058 L2.20345714,55.1236232 L2.20273187,55.9823188 Z" id="Fill-110" fill="#231F20"></path>
                <path d="M3.99582857,43.8157971 L1.94837802,43.2404348 L1.79897143,43.1984058 L1.79897143,43.0433333 L1.7996967,41.7701449 L1.7996967,41.5107246 L2.05064176,41.5701449 L4.09809231,42.052029 L4.2562022,42.0889855 L4.2562022,42.252029 L4.2562022,43.6186957 L4.25547692,43.8897101 L3.99582857,43.8157971 Z M2.20875165,42.8875362 L3.84642198,43.3476812 L3.84642198,42.4143478 L2.20875165,42.0288406 L2.20875165,42.8875362 Z" id="Fill-111" fill="#231F20"></path>
                <path d="M33.8149912,94.4222464 L31.7675407,93.7186232 L31.6297385,93.6707971 L31.6297385,93.5244203 L31.6304637,92.2512319 L31.6304637,91.9765942 L31.8937385,92.0548551 L33.9404637,92.665 L34.0869692,92.7084783 L34.0869692,92.8613768 L34.0869692,94.2280435 L34.086244,94.5157246 L33.8149912,94.4222464 Z M32.0395187,93.3780435 L33.677189,93.941087 L33.677189,93.0142754 L32.0395187,92.5258696 L32.0395187,93.3780435 Z" id="Fill-112" fill="#231F20"></path>
                <path d="M33.8231143,79.7430435 L31.7756637,79.0691304 L31.6349604,79.0234783 L31.6349604,78.8742029 L31.6356857,77.6010145 L31.6356857,77.3307246 L31.8960593,77.403913 L33.9435099,77.9836232 L34.0921912,78.0256522 L34.0921912,78.1814493 L34.0921912,79.5481159 L34.0921912,79.8314493 L33.8231143,79.7430435 Z M32.0447407,78.7256522 L33.682411,79.2647826 L33.6831363,78.3365217 L32.0447407,77.872029 L32.0447407,78.7256522 Z" id="Fill-113" fill="#231F20"></path>
                <path d="M33.8436396,63.3 L31.796189,62.7898551 L31.6402549,62.7514493 L31.6402549,62.5913043 L31.6409802,61.3181159 L31.6409802,61.0673913 L31.8868484,61.1173913 L33.9335736,61.5333333 L34.0974857,61.5666667 L34.0974857,61.7333333 L34.0974857,63.1007246 L34.0974857,63.3630435 L33.8436396,63.3 Z M32.0500352,62.4311594 L33.6877055,62.8384058 L33.6877055,61.9014493 L32.0500352,61.5681159 L32.0500352,62.4311594 Z" id="Fill-114" fill="#231F20"></path>
                <path d="M33.8507473,49.7392029 L31.804022,49.252971 L31.6459121,49.2152899 L31.6459121,49.052971 L31.6466374,47.7797826 L31.6466374,47.5319565 L31.8896044,47.5783333 L33.9370549,47.971087 L34.1031429,48.002971 L34.1031429,48.1725362 L34.1031429,49.5392029 L34.1031429,49.7993478 L33.8507473,49.7392029 Z M32.0556923,48.8906522 L33.6933626,49.2797826 L33.6940879,48.3421014 L32.0556923,48.0276087 L32.0556923,48.8906522 Z" id="Fill-115" fill="#231F20"></path>
                <path d="M24.7366549,78.4200725 L26.5911824,78.9751449 L26.7362374,79.0186232 L26.7369626,79.1715217 L26.7384132,79.8606522 L26.7391385,80.1367391 L26.4744132,80.057029 L24.6184352,79.4939855 L24.7373802,79.1026812 L26.328633,79.5845652 L26.3279077,79.3244203 L24.6191604,78.8128261 L24.7366549,78.4200725 Z M24.2130066,79.3722464 L23.7466549,79.2316667 L23.8656,78.8381884 L24.3319516,78.9794928 L24.2130066,79.3722464 Z M23.8648747,78.1592029 L24.3312264,78.299058 L24.2137319,78.6918116 L23.7473802,78.5526812 L23.8648747,78.1592029 Z M20.581556,78.272971 L20.1514681,78.1425362 L20.2704132,77.7497826 L20.7005011,77.8794928 L20.581556,78.272971 Z M22.9234681,78.980942 L20.9869846,78.3947101 L21.1059297,78.0034058 L23.0424132,78.5896377 L22.9234681,78.980942 Z M21.1044791,77.3331159 L23.0416879,77.9128261 L22.9241934,78.3063043 L20.9877099,77.7258696 L21.1044791,77.3331159 Z M20.2696879,77.0831159 L20.6997758,77.2121014 L20.5822813,77.6048551 L20.1529187,77.4765942 L20.2696879,77.0831159 Z M12.9451385,75.9606522 L12.5607429,75.8447101 L12.6796879,75.4512319 L13.0633582,75.5671739 L12.9451385,75.9606522 Z M12.6789626,74.8121014 L13.0633582,74.9265942 L12.9458637,75.3200725 L12.5614681,75.2048551 L12.6789626,74.8121014 Z M8.38751209,74.5816667 L6.28856703,73.9461594 L6.14206154,73.9019565 L6.14351209,73.7483333 L6.14786374,73.1323913 L6.15003956,72.8584783 L6.41113846,72.9367391 L8.50573187,73.5635507 L8.38823736,73.9563043 L6.55546813,73.4077536 L6.55401758,73.5968841 L8.50645714,74.1881884 L8.38751209,74.5816667 Z M9.3485011,74.8722464 L8.79294066,74.7041304 L8.91188571,74.3113768 L9.46744615,74.4794928 L9.3485011,74.8722464 Z M12.1553143,75.7215217 L10.1724132,75.1207971 L10.2913582,74.7294928 L12.2742593,75.3294928 L12.1553143,75.7215217 Z M10.2913582,74.0976087 L12.2735341,74.691087 L12.1560396,75.0838406 L10.1738637,74.4903623 L10.2913582,74.0976087 Z M8.91116044,73.6845652 L9.46672088,73.8505072 L9.34995165,74.2439855 L8.79366593,74.0780435 L8.91116044,73.6845652 Z" id="Fill-116" fill="#231F20"></path>
                <polygon id="Fill-117" fill="#231F20" points="8.24158681 75.3403623 8.24158681 72.9396377 8.24158681 72.6860145 8.48963077 72.738913 8.89505934 72.8258696 9.05752088 72.8606522 9.05752088 73.0265942 9.05752088 75.4563043 9.05752088 75.7280435 8.79642198 75.6534058 8.39099341 75.5374638 8.24158681 75.4954348"></polygon>
                <polygon id="Fill-118" fill="#231F20" points="12.009244 76.4977536 12.009244 74.097029 12.009244 73.8434058 12.2572879 73.8963043 12.6627165 73.9832609 12.8259033 74.0180435 12.8259033 74.1839855 12.8259033 76.612971 12.8259033 76.8854348 12.5640791 76.8107971 12.1586505 76.6948551 12.009244 76.6521014"></polygon>
                <polygon id="Fill-119" fill="#231F20" points="20.4352681 78.8913768 20.4352681 76.4906522 20.4352681 76.237029 20.6833121 76.2899275 21.0887407 76.3768841 21.2519275 76.4116667 21.2519275 76.5776087 21.2519275 79.0065942 21.2519275 79.279058 20.9901033 79.2044203 20.5846747 79.0884783 20.4352681 79.0457246"></polygon>
                <polygon id="Fill-120" fill="#231F20" points="24.0669363 80.0189855 24.0669363 77.6182609 24.0669363 77.3646377 24.3149802 77.4175362 24.7204088 77.5044928 24.8828703 77.54 24.8828703 77.7052174 24.8828703 80.1349275 24.8828703 80.4073913 24.6217714 80.3327536 24.2163429 80.216087 24.0669363 80.174058"></polygon>
                <path d="M8.8212989,87.9422464 L8.8154967,86.7147101 L8.81404615,86.4263043 L9.08747473,86.5197826 L10.6025736,87.0407971 L10.7403758,87.0886232 L10.7403758,87.2342754 L10.7360242,88.5487681 L10.7352989,88.8516667 L10.4546176,88.7393478 L8.94967253,88.1313768 L8.82202418,88.0799275 L8.8212989,87.9422464 Z M9.22672747,87.0016667 L9.23035385,87.8031159 L10.3276945,88.2451449 L10.3305956,87.3813768 L9.22672747,87.0016667 Z" id="Fill-121" fill="#231F20"></path>
                <path d="M12.4441187,89.1877536 L12.4383165,87.9602174 L12.4368659,87.6718116 L12.7095692,87.7652899 L14.2253934,88.2863043 L14.3631956,88.3341304 L14.3631956,88.4805072 L14.358844,89.7942754 L14.3581187,90.0978986 L14.0774374,89.9848551 L12.5724923,89.3768841 L12.4441187,89.3254348 L12.4441187,89.1877536 Z M12.8495473,88.2471739 L12.8524484,89.0486232 L13.9505143,89.4913768 L13.9534154,88.6268841 L12.8495473,88.2471739 Z" id="Fill-122" fill="#231F20"></path>
                <path d="M18.7892571,91.3694203 L18.7841802,90.1418841 L18.7827297,89.8534783 L19.055433,89.9469565 L20.5705319,90.467971 L20.7090593,90.5157971 L20.7083341,90.6621739 L20.7039824,91.975942 L20.7032571,92.2795652 L20.4233011,92.1665217 L18.9176308,91.5585507 L18.7892571,91.5071014 L18.7892571,91.3694203 Z M19.1946857,90.4288406 L19.1983121,91.2302899 L20.2956527,91.6723188 L20.2985538,90.8085507 L19.1946857,90.4288406 Z" id="Fill-123" fill="#231F20"></path>
                <path d="M22.4418132,92.6251449 L22.436011,91.3976087 L22.4345604,91.1092029 L22.707989,91.2026812 L24.2230879,91.7236957 L24.3608901,91.7715217 L24.3608901,91.9178986 L24.3565385,93.2316667 L24.3558132,93.5352899 L24.0758571,93.4222464 L22.5701868,92.815 L22.4425385,92.7628261 L22.4418132,92.6251449 Z M22.8472418,91.6845652 L22.8508681,92.4860145 L23.9482088,92.9287681 L23.9511099,92.0642754 L22.8472418,91.6845652 Z" id="Fill-124" fill="#231F20"></path>
                <path d="M9.38795604,40.891087 L9.38723077,41.3236957 L10.2546593,41.4794928 L10.2546593,41.049058 L9.38795604,40.891087 Z M8.97745055,41.4947101 L8.9789011,40.6461594 L8.9789011,40.4012319 L9.21969231,40.4447101 L10.4954505,40.6773188 L10.6644396,40.7084783 L10.6644396,40.8787681 L10.6637143,41.7236957 L10.6637143,41.9686232 L10.4229231,41.9251449 L9.14643956,41.6961594 L8.97745055,41.6657246 L8.97745055,41.4947101 Z" id="Fill-125" fill="#231F20"></path>
                <path d="M12.9806769,41.5368116 L12.9806769,41.9694203 L13.8473802,42.1252174 L13.8473802,41.6947826 L12.9806769,41.5368116 Z M12.5708967,42.1404348 L12.571622,41.2918841 L12.571622,41.0469565 L12.8124132,41.0904348 L14.0881714,41.3230435 L14.2571604,41.3542029 L14.2571604,41.5237681 L14.2564352,42.3701449 L14.2564352,42.6143478 L14.015644,42.5708696 L12.7391604,42.3411594 L12.5701714,42.3114493 L12.5708967,42.1404348 Z" id="Fill-126" fill="#231F20"></path>
                <path d="M19.3462681,42.681087 L19.3462681,43.1136957 L20.2129714,43.2694928 L20.2136967,42.839058 L19.3462681,42.681087 Z M18.9364879,43.2847101 L18.9372132,42.4361594 L18.9372132,42.1912319 L19.1780044,42.2347101 L20.4544879,42.4673188 L20.6227516,42.4984783 L20.6227516,42.6687681 L20.6227516,43.5136957 L20.6220264,43.7586232 L20.3812352,43.7151449 L19.1047516,43.4861594 L18.9357626,43.4557246 L18.9364879,43.2847101 Z" id="Fill-127" fill="#231F20"></path>
                <path d="M22.9496505,43.3285507 L22.9489253,43.7611594 L23.8163538,43.9169565 L23.8163538,43.4865217 L22.9496505,43.3285507 Z M22.5391451,43.9321739 L22.5405956,43.0836232 L22.5405956,42.8386957 L22.7813868,42.8821739 L24.0571451,43.1147826 L24.2261341,43.145942 L24.2261341,43.3155072 L24.2254088,44.1618841 L24.2254088,44.406087 L23.9846176,44.3626087 L22.7081341,44.1336232 L22.5391451,44.1031884 L22.5391451,43.9321739 Z" id="Fill-128" fill="#231F20"></path>
                <path d="M9.35821978,56.2673188 L9.35821978,56.6948551 L10.2249231,56.9021014 L10.2249231,56.4774638 L9.35821978,56.2673188 Z M8.94843956,56.8557246 L8.94916484,56.0071739 L8.94989011,55.747029 L9.20228571,55.8086232 L10.478044,56.1165942 L10.6347033,56.155 L10.6347033,56.3158696 L10.6347033,57.1615217 L10.633978,57.420942 L10.3823077,57.3607971 L9.10582418,57.055 L8.94843956,57.0173188 L8.94843956,56.8557246 Z" id="Fill-129" fill="#231F20"></path>
                <path d="M12.9513033,57.1274638 L12.9513033,57.555 L13.8180066,57.7622464 L13.8180066,57.3376087 L12.9513033,57.1274638 Z M12.5415231,57.7158696 L12.5422484,56.8673188 L12.5422484,56.6071739 L12.7953692,56.6680435 L14.0711275,56.9767391 L14.2277868,57.0151449 L14.2277868,57.1760145 L14.2270615,58.0216667 L14.2270615,58.281087 L13.9753912,58.220942 L12.6981824,57.9151449 L12.5407978,57.8774638 L12.5415231,57.7158696 Z" id="Fill-130" fill="#231F20"></path>
                <path d="M19.3168945,58.6513768 L19.3168945,59.078913 L20.1835978,59.2861594 L20.1843231,58.8615217 L19.3168945,58.6513768 Z M18.9071143,59.2397826 L18.9078396,58.3912319 L18.9078396,58.131087 L19.1609604,58.1926812 L20.4367187,58.5006522 L20.593378,58.539058 L20.593378,58.6999275 L20.593378,59.5455797 L20.5926527,59.805 L20.3409824,59.7441304 L19.0637736,59.439058 L18.906389,59.4013768 L18.9071143,59.2397826 Z" id="Fill-131" fill="#231F20"></path>
                <path d="M22.9199143,59.514058 L22.9199143,59.9408696 L23.7866176,60.1488406 L23.7873429,59.7234783 L22.9199143,59.514058 Z M22.5101341,60.1024638 L22.5108593,59.253913 L22.5115846,58.9937681 L22.7639802,59.0546377 L24.0397385,59.3633333 L24.1971231,59.4017391 L24.1971231,59.5626087 L24.1963978,60.4082609 L24.1963978,60.6676812 L23.9447275,60.6068116 L22.6675187,60.3017391 L22.5101341,60.264058 L22.5101341,60.1024638 Z" id="Fill-132" fill="#231F20"></path>
                <polygon id="Fill-133" fill="#231F20" points="22.7782681 78.7852899 22.7724659 91.5121014 23.1822462 91.5121014 23.1873231 78.7852899"></polygon>
                <path d="M112.746422,0.493115942 L5.10767473,36.2286232 L4.3134989,36.4916667 L5.13958681,36.625 L36.8224879,41.7112319 L36.8812352,41.7199275 L36.936356,41.6960145 L128.663301,1.88442029 L129.441521,1.54601449 L128.593675,1.49166667 L112.823301,0.482971014 L112.784862,0.480072464 L112.746422,0.493115942 Z M6.0294989,36.3525362 L112.835631,0.89384058 L127.720444,1.84601449 L36.8275648,41.2967391 L6.0294989,36.3525362 Z" id="Fill-134" fill="#231F20"></path>
                <polygon id="Fill-135" fill="#231F20" points="9.5193033 34.786087 40.9490835 39.5418841 40.8881604 39.9476812 9.45910549 35.1918841"></polygon>
                <polygon id="Fill-136" fill="#231F20" points="13.4842352 33.4688406 45.0387626 37.7652174 44.984367 38.1710145 13.4291143 33.8746377"></polygon>
                <polygon id="Fill-137" fill="#231F20" points="17.8677956 32.0128261 49.1858835 35.965 49.1336637 36.3707971 17.8163011 32.4186232"></polygon>
                <polygon id="Fill-138" fill="#231F20" points="23.0870901 30.2786957 53.7096396 33.9997101 53.6617714 34.4069565 23.039222 30.685942"></polygon>
                <polygon id="Fill-139" fill="#231F20" points="27.9589055 28.6613768 58.0947956 32.0961594 58.048378 32.5034058 27.9124879 29.0686232"></polygon>
                <polygon id="Fill-140" fill="#231F20" points="32.4812835 27.159058 62.282822 30.2771739 62.240756 30.6851449 32.4392176 27.5663043"></polygon>
                <polygon id="Fill-141" fill="#231F20" points="37.701956 25.4256522 66.5707912 28.4155072 66.5287253 28.8234783 37.6598901 25.8328986"></polygon>
                <polygon id="Fill-142" fill="#231F20" points="42.8189143 23.7272464 70.5244088 26.7004348 70.4816176 27.1076812 42.7753978 24.1344928"></polygon>
                <polygon id="Fill-143" fill="#231F20" points="47.4439912 22.1902174 75.1864747 24.675 75.1509363 25.082971 47.4084527 22.5974638"></polygon>
                <polygon id="Fill-144" fill="#231F20" points="51.9662967 20.6871739 79.4295495 22.8313768 79.3990879 23.2407971 51.9358352 21.0965942"></polygon>
                <polygon id="Fill-145" fill="#231F20" points="57.3977341 18.8847826 83.3843275 21.115942 83.3509648 21.5253623 57.3643714 19.2942029"></polygon>
                <polygon id="Fill-146" fill="#231F20" points="62.8666681 17.0714493 86.7695473 19.6497101 86.7260308 20.0569565 62.8231516 17.4786957"></polygon>
                <polygon id="Fill-147" fill="#231F20" points="67.9836264 15.3730435 90.8210769 17.8911594 90.7761099 18.2991304 67.9386593 15.7802899"></polygon>
                <polygon id="Fill-148" fill="#231F20" points="72.9610418 13.7202899 94.7744044 16.1753623 94.7294374 16.5833333 72.9160747 14.1275362"></polygon>
                <polygon id="Fill-149" fill="#231F20" points="77.4865385 12.2183333 98.3505165 14.6234058 98.3040989 15.0313768 77.4401209 12.6255797"></polygon>
                <polygon id="Fill-150" fill="#231F20" points="81.8718396 10.7623188 101.828499 13.1144928 101.782081 13.5217391 81.825422 11.1695652"></polygon>
                <polygon id="Fill-151" fill="#231F20" points="86.7815868 9.13398551 105.449433 11.5448551 105.397213 11.9506522 86.7300923 9.53978261"></polygon>
                <polygon id="Fill-152" fill="#231F20" points="91.1672505 7.67804348 109.02424 9.99253623 108.972745 10.3983333 91.115756 8.08384058"></polygon>
                <polygon id="Fill-153" fill="#231F20" points="95.3446879 6.29137681 112.369787 8.54065217 112.316842 8.94717391 95.2917429 6.69717391"></polygon>
                <polygon id="Fill-154" fill="#231F20" points="99.4158725 4.93942029 115.846971 7.03144928 115.795477 7.43724638 99.364378 5.34521739"></polygon>
                <polygon id="Fill-155" fill="#231F20" points="103.695284 3.5173913 119.575899 5.4115942 119.528031 5.81884058 103.647415 3.92463768"></polygon>
                <polygon id="Fill-156" fill="#231F20" points="107.764292 2.16536232 123.309831 3.78927536 123.26704 4.19724638 107.722226 2.5726087"></polygon>
                <polygon id="Fill-157" fill="#231F20" points="110.99793 1.09014493 126.407116 2.44304348 126.370853 2.85246377 110.962391 1.49884058"></polygon>
            </g>
        </g>
    </g>
</svg>